<?xml version="1.0" encoding="utf-8"?>
<!-- Generator: Adobe Illustrator 19.0.0, SVG Export Plug-In . SVG Version: 6.00 Build 0)  -->
<svg version="1.1" id="Layer_1" xmlns="http://www.w3.org/2000/svg" xmlns:xlink="http://www.w3.org/1999/xlink" x="0px" y="0px"
	 viewBox="0 0 1920 1080" style="enable-background:new 0 0 1920 1080;" xml:space="preserve" preserveAspectRatio="none">
<style type="text/css">
	.st0{opacity:0.2;}
	.st1{fill:#FF55FA;}
</style>
<g id="XMLID_114_" class="st0">
	<g id="XMLID_964_">
		<path id="XMLID_1083_" class="st1" d="M935,21.8c1.8,0.9,3.5,1.9,5.1,2.9c1.5,1,3.1,1.9,4.7,2.7c29.5,15.2,61,23.6,88.4,23.6l0,0
			c27.1,0,50.1-7.7,68.2-23c9.8-8.2,17.6-18.1,22.4-27.9h-0.9c-4.8,9.8-12.5,19.5-22.2,27.7c-18,15.1-40.7,22.8-67.5,22.8l0,0
			c-27.2,0-58.4-8.3-87.9-23.4c-1.5-0.8-3-1.7-4.6-2.7c-1.7-1-3.4-2-5.1-2.9c-13.2-6.7-27.5-12.8-41.3-18.7
			c-2.1-0.9-4.1-1.7-6.1-2.6h-1.5c2.3,1,4.7,2,7.1,3.1C907.6,9,921.8,15.1,935,21.8z"/>
		<path id="XMLID_1082_" class="st1" d="M58.3,71.2C77.5,60.9,97.3,50.3,110,35c6.4-7.7,12.7-20,15.6-35h-0.9
			c-2.9,15-9.2,27.2-15.5,34.9C96.6,49.9,76.9,60.5,57.7,70.8C35.4,82.7,12.4,95,1,114.5c-0.4,0.6-0.7,1.1-1,1.8v1.7
			c0.5-1.1,1.2-2.3,1.8-3.3C13.2,95.3,36.1,83,58.3,71.2z"/>
		<path id="XMLID_1081_" class="st1" d="M1026.7,27.2L1026.7,27.2c9.4,0,18.5-1.9,26.9-5.6c7.9-3.4,11.7-6.9,15.8-10.5
			c1.7-1.5,3.5-3.1,5.5-4.7c1.6-2.1,2.9-4.3,4.1-6.5h-0.9c-1.1,2.1-2.4,4.2-3.9,6.2c-2.1,1.6-3.9,3.2-5.5,4.7
			c-4,3.6-7.9,7-15.5,10.3c-8.4,3.6-17.2,5.5-26.4,5.5l0,0c-24.7,0-48.4-12.6-69.3-23.7c-1.9-1-3.7-2-5.6-3h-1.3
			c2.1,1.1,4.1,2.2,6.3,3.3C977.8,14.6,1001.7,27.2,1026.7,27.2z"/>
		<path id="XMLID_1080_" class="st1" d="M16.2,160.8c4.5-13.3,8.6-25.8,15-34.6C41.9,111.1,64.3,98.4,88,85
			c14.6-8.2,29.7-16.7,42.4-26.1c15.9-11.7,26.6-21.8,35.5-33.7c5.3-7,9.8-15.2,14.2-23c0.4-0.7,0.9-1.4,1.2-2.1h-0.9
			c-0.3,0.7-0.7,1.3-1.1,2c-4.3,7.8-8.9,16-14.1,23c-8.9,11.9-19.5,22-35.4,33.6c-12.7,9.3-27.7,17.8-42.3,26
			C63.6,98.1,41.1,110.8,30.3,126c-6.4,8.9-10.6,21.4-15,34.7c-4.3,12.8-8.7,26-15.2,35.7c-0.1,0.1-0.1,0.2-0.1,0.2v1.3
			c0.3-0.5,0.7-0.9,1-1.4C7.6,186.9,12,173.7,16.2,160.8z"/>
		<path id="XMLID_1079_" class="st1" d="M88.8,326c30.9,7.1,69.4,15.9,84.1,34c1,9.8-5,18.2-11.4,27.1c-9,12.4-19.2,26.5-13.4,48.5
			c4.4,16.7,21.4,27.4,41.2,39.8c8.2,5.1,16.5,10.4,24.5,16.4c20.8,15.8,35.1,33.6,46.1,49c11.1,15.3,19.8,27.3,49,31.4
			c17.4,2.4,41.8,4.1,58.5,5.1c9.2,0.6,17.8,0.9,25.6,0.9c12.8,0,23.9-0.8,33.2-2.4c19.8-3.4,32.3-12.6,48.2-24.4
			c4.7-3.5,9.6-7,15.1-10.8c3.7-2.6,8.6-5.4,13.9-8.5c10.9-6.3,22.2-12.9,25.3-18.1c1.1-2,0.8-3.9,0.5-6c-0.3-1.6-0.5-3.4-0.2-5.5
			l0.1-0.1l-0.1-0.1c-10.6-8-23.4-14.5-35.9-20.8c-21.1-10.6-41.1-20.7-48.6-37.2c-4-8.7-2.5-18,4.4-28.5
			c7.4-11,24.6-23.2,48.5-34.1c10.8-4.9,22.2-10.1,34.3-15.6c55.6-24.9,118.6-53.2,153-77.8l0.1-0.2c1.1-3,0.7-6.5-0.8-10.3
			c-4.5-10.3-18.5-22.6-38.6-33.7c-19.2-10.5-40.9-18.4-58.3-21.2c-1.4-0.2-4.1-0.7-7.1-1c-23.2-3-47.2-0.9-70.3,1.1
			c-20,1.7-39.1,3.4-57.5,2c-39.9-3-68.5-18.4-78.7-42.1c-13.3-31.2,23.5-50.7,59.1-69.7c26.2-14,53.4-28.5,60.6-47.5
			c6.8-18-2.1-37.3-7.9-50.2c-2.3-5.2-5.2-10.3-8.3-15.5H476c3.1,5.2,5.9,10.4,8.3,15.6c5.8,12.8,14.6,32.1,7.9,49.9
			c-7.1,18.9-34.1,33.3-60.4,47.3c-35.7,19-72.7,38.7-59.3,70.2c10.2,23.9,39.3,39.4,79.5,42.5c18.5,1.4,37.5-0.2,57.7-2
			c23.1-2,47-4,70-1.1c2.9,0.3,5.7,0.8,7.1,1c34.5,5.4,86.6,32.3,96.2,54.5c1.7,3.8,1.9,7.1,0.9,10c-34.4,24.6-97.3,52.9-152.8,77.7
			c-12.2,5.4-23.6,10.6-34.4,15.5c-24,11-41.3,23.2-48.7,34.4c-7,10.5-8.4,19.9-4.5,28.7c7.7,16.7,27.7,26.8,48.9,37.5
			c12.4,6.2,25.1,12.6,35.7,20.6c-0.3,2.1-0.1,3.9,0.1,5.5c0.4,2.1,0.7,3.8-0.5,5.7c-3.1,5.1-14.2,11.7-25.1,18
			c-5.2,3-10.2,5.9-13.9,8.5c-5.5,3.8-10.4,7.4-15.2,10.9c-15.8,11.6-28.2,20.8-47.7,24.2c-14.8,2.5-33.9,3-58.4,1.5
			c-16.8-1-41.1-2.7-58.4-5.1c-28.7-3.9-37.4-15.9-48.4-31.1c-11.1-15.4-25.3-33.2-46.2-49.1c-8-6-16.4-11.3-24.5-16.4
			c-19.7-12.3-36.7-23-41-39.6c-5.7-21.8,4.4-35.8,13.3-48.2c6.4-8.9,12.5-17.4,11.5-27.3l-0.1-0.1c-14.9-18.2-53.6-27.1-84.6-34.2
			c-8.5-2-17.2-3.9-26.7-5.1c-22-2.7-42.9-4.2-62.5-4.7v0.5c19.6,0.4,40.4,2,62.3,4.6C71.7,322.1,80.5,324.1,88.8,326z"/>
		<path id="XMLID_1078_" class="st1" d="M540.2,14.9c2.4,5.3,5.2,10.6,7.9,15.7c5.9,11.4,11.4,22.1,13.6,31.8
			c1.7,6.9,1.7,13.9,0.1,18.9c-4.6,14.9-22,26.4-38.7,37.7c-19.2,12.8-39.1,26.2-40.7,44.7c2.1,16.5,34.3,18.9,68.5,21.4
			c6.3,0.5,12.8,1,19,1.5c25,2.3,53.8,6.9,83.3,13.3c10.3,2.3,20.2,5.1,29.9,7.8c18.4,5.2,35.7,10.2,56,11.5
			c2.6,0.2,5.2,0.2,7.9,0.2c13.8,0,25.8-2.2,36-4.3c10.4-2.1,19.3-4.4,27.9-6.6c18.6-4.7,36.1-9.2,63.1-10.5
			c4.8-0.3,9.7-0.4,14.6-0.4c29.3,0,53.9,4.4,77.7,8.7c20.5,3.8,40,7.2,60.2,7.2c4,0,8-0.1,11.8-0.4c30.6-2.2,54.2-11.3,71.9-27.9
			c15.6-14.6,24.6-33.1,32.1-50.9c2.2-5.2,6.1-15,7.4-22.1c1.3-6.7-0.5-11.5-5.6-14.9c-9.2-6.2-27.8-6.5-49.3-6.9
			c-9.8-0.2-19.8-0.4-29.9-1.1c-42.3-3.1-77.8-6.3-117.1-15.7c-32.3-7.7-64.7-17.4-86.2-24.1C825.6,37.8,784.8,23.7,756,0h-1.1
			c28.9,23.9,70,38.2,106.4,49.6c21.4,6.7,53.8,16.4,86.2,24.2c39.3,9.4,74.9,12.6,117.3,15.8c10,0.7,20.2,0.9,29.9,1.1
			c21.3,0.4,39.7,0.7,48.8,6.7c4.9,3.3,6.7,8,5.3,14.5c-1.4,7-5.2,16.8-7.4,22c-14.9,35.4-36.3,73.7-103.3,78.5
			c-3.8,0.3-7.7,0.4-11.6,0.4c-20,0-39.4-3.5-60-7.2c-23.8-4.3-48.4-8.7-77.9-8.7c-4.9,0-9.8,0.1-14.6,0.4
			c-27.2,1.4-44.7,5.9-63.4,10.6c-8.7,2.2-17.6,4.5-27.9,6.6c-10.2,2.1-22.2,4.3-35.7,4.3c-2.7,0-5.3-0.1-7.8-0.2
			c-20.1-1.3-37.4-6.2-55.8-11.4c-9.6-2.8-19.6-5.6-29.9-7.8c-29.5-6.4-58.4-11-83.4-13.3c-6.3-0.6-12.8-1.1-19.1-1.5
			c-33.7-2.5-65.7-4.9-67.7-20.9c1.5-18.2,21.4-31.5,40.5-44.3c16.9-11.2,34.3-22.9,39-37.8c1.6-5,1.5-12.1-0.1-19.1
			c-2.3-9.7-7.9-20.4-13.7-31.8c-2.7-5.2-5.4-10.5-7.9-15.8c-1.6-3.4-3.3-6.9-5-10.3c-0.7-1.5-1.4-3-2.2-4.5h-0.9
			c0.8,1.6,1.6,3.1,2.3,4.6C536.9,8,538.6,11.5,540.2,14.9z"/>
		<path id="XMLID_1077_" class="st1" d="M62,34.1C71.1,26,79.2,16.2,79.3,0h-0.9c-0.2,16.1-8.2,25.8-17.2,33.8
			C49.8,43.9,33.3,50,15.8,56.5c-5.3,2-10.6,3.9-15.8,6v0.6C5.3,61,10.8,58.9,16.2,57C33.8,50.4,50.4,44.3,62,34.1z"/>
		<path id="XMLID_1076_" class="st1" d="M598.5,45.9c5.4,7,11,14.1,12.9,21.6c5.3,20.5-13.1,33.7-30.8,46.7
			c-12.2,8.8-23.6,17-27.1,27.2c-0.9,2.6-0.7,4.1-0.5,6.2c0.1,1.1,0.3,2.2,0.3,3.8v0.1c4.5,7.2,18,12.3,28.6,15.3
			c38.2,10.9,100.4,16,145.8,19.8c6.9,0.5,13.6,0.8,20.7,0.8l0,0c17.6,0,34-1.7,51.3-3.5c18.5-1.9,37.7-3.9,59.8-3.9
			c5.9,0,11.8,0.2,17.6,0.4c1.2,0.1,4.5,0.2,8.8,0.3c6.3,0.2,14.1,0.4,19.6,0.7c18.5,0.8,33.1,2.7,47.3,4.5
			c18.9,2.4,36.6,4.7,62.9,4.7c2.7,0,5.6,0,8.4-0.1c20.9-1.9,40.1-14.6,47.7-31.6c6.3-14.1,4.9-32.7-18.2-43.1
			c-27.1-12.1-106-22.8-148.4-24.7c-9-0.5-16.6-0.5-23.8-0.5c-8.1,0-16.4-0.1-27.3-0.6c-29.2-1.5-53.4-8.2-80.9-22.2
			c-34-17.4-52.4-30.8-78.8-57.5c-2.9-2.9-5.5-6.4-8-10.3h-1c2.6,4,5.3,7.7,8.3,10.6c26.4,26.7,44.8,40.1,79,57.6
			c27.6,14.1,51.9,20.8,81.3,22.3c10.9,0.6,19.3,0.6,27.4,0.6c7.6,0,14.7,0.1,23.8,0.5c42.3,2,120.9,12.6,148,24.7
			c22.6,10.2,24,28.6,17.8,42.6c-7.5,16.8-26.5,29.3-47,31.2c-2.8,0-5.6,0.1-8.3,0.1c-26.1,0-43.9-2.3-62.7-4.7
			c-14.2-1.8-28.8-3.7-47.4-4.5c-5.5-0.2-13.4-0.5-19.6-0.7c-4.3-0.1-7.6-0.2-8.8-0.3c-5.9-0.3-11.8-0.5-17.7-0.5
			c-22.2,0-41.4,2-59.9,3.9c-17.3,1.8-33.6,3.5-51.2,3.5l0,0c-7.1,0-13.8-0.2-20.6-0.8c-45.3-3.8-107.5-8.8-145.5-19.7
			c-10.4-2.9-23.7-7.9-28.1-15c-0.1-1.5-0.2-2.7-0.3-3.8c-0.3-2-0.5-3.5,0.4-6.1c3.5-10,14.8-18.3,26.9-27
			c17.9-12.9,36.3-26.4,31-47c-1.9-7.5-7.5-14.7-13-21.7c-2.1-2.7-4.4-5.6-6.3-8.4c-7-10-15.2-23.4-20.4-37.3h-0.9
			c5.3,14,13.4,27.5,20.4,37.6C594.1,40.4,596.3,43.2,598.5,45.9z"/>
		<path id="XMLID_1075_" class="st1" d="M92.2,252.5c12.3-7.9,23.2-16.3,34.8-25.2c18.4-14.1,37.3-28.6,61.8-40.7
			c1.7-0.9,3.5-1.9,5.1-2.9c1.5-0.9,3.1-1.8,4.7-2.7c16-8.1,34.3-14.6,51.9-20.9c12.2-4.4,25-8.8,36.9-13.9c9.4-4,19-8.2,28.1-12.3
			c13.9-6.2,28.3-12.6,42.8-18.3c6.9-2.7,14-5.3,21.6-8.1c37-13.6,78.9-29,85.3-56.8C468.5,36,461.8,17,447.5,0h-0.9
			c14.3,17,21,36,17.7,50.7c-6.4,27.6-48.1,42.9-85,56.4c-7.5,2.8-14.6,5.4-21.5,8.1c-14.6,5.8-28.9,12.2-42.8,18.3
			c-9.2,4.1-18.6,8.3-28.2,12.3c-11.8,5-24.5,9.5-36.7,13.9c-17.7,6.3-36,12.8-52,21c-1.7,0.8-3.3,1.8-4.8,2.7c-1.6,1-3.2,2-5,2.8
			c-24.6,12.1-43.6,26.7-61.9,40.8c-11.6,8.9-22.6,17.3-34.8,25.2C67.2,267.7,35,278.3,0,282.5v0.5
			C35.3,278.8,67.7,268.1,92.2,252.5z"/>
		<path id="XMLID_1074_" class="st1" d="M37.7,232.6c11.9-10,12-28.2,10.7-42.9c-1-11.9-0.7-34.5,12.8-53.4
			c10.4-14.4,35.2-27.2,59.2-39.6c3.7-1.9,7.3-3.8,10.8-5.7c48-25.2,71.8-47.8,92.8-74c1.8-2.2,3.3-4.6,4.9-6.9
			c1.9-2.9,3.9-5.8,6.3-8.6c0.5-0.6,1-1.1,1.5-1.7h-1c-0.4,0.5-0.9,1-1.3,1.4c-2.5,2.9-4.4,5.8-6.3,8.7c-1.5,2.3-3.1,4.6-4.9,6.9
			c-20.9,26.2-44.6,48.7-92.5,73.8c-3.5,1.9-7.2,3.7-10.8,5.6c-24,12.4-48.9,25.2-59.4,39.8c-13.6,18.9-13.9,41.7-12.9,53.6
			c1.3,14.7,1.1,32.7-10.6,42.6c-8.5,7.1-22.1,12.1-36.9,16.5v0.6C15.1,245,28.9,239.9,37.7,232.6z"/>
		<path id="XMLID_1073_" class="st1" d="M13.2,14.1C19,10.6,21.5,5.2,21.5,0h-1c0,5.2-2.5,10.5-7.9,13.7C8.9,16,4.5,17.2,0,17.2v0
			v0.5l0,0C4.7,17.7,9.3,16.4,13.2,14.1z"/>
		<path id="XMLID_1072_" class="st1" d="M286.6,8.1c-12.6,8.6-21.9,20.3-30.8,31.6c-1.4,1.7-2.7,3.4-4.1,5.1
			c-13,16.2-29.2,36.3-46.9,50.1c-9.6,7.5-25.4,12.9-42.2,18.6c-23.8,8.1-48.3,16.5-57.9,31.9c-3.5,5.6-3.5,11.6-0.1,19.3
			c3.3,4.3,9.1,6.4,17.1,6.4l0,0c13.2,0,28.7-5.9,35.1-9c12.7-6.2,23.9-14.7,34.6-23c5.8-4.4,11.7-9,17.8-13.2
			c3-2,13.2-8.7,21.8-11.6c20.4-6.9,46.4-12.2,74.1-17.8c38.4-7.7,78-15.7,102.7-28.8c13.2-6.8,21-17.5,21.6-29.3
			c0.6-12.6-7-24.6-21.6-33.8c-2.6-1.6-5.4-3.2-8.4-4.5h-1.5c3.2,1.5,6.3,3.1,9.2,4.9c14.4,9,22,20.9,21.3,33.4
			c-0.5,11.6-8.3,22.3-21.2,29c-24.6,12.9-64.2,20.9-102.4,28.6c-27.7,5.6-53.8,10.9-74.2,17.8c-8.9,3-19.1,9.8-22,11.8
			c-6.3,4.2-12.2,8.8-18,13.3c-10.7,8.2-21.8,16.7-34.4,22.9c-6.3,3.1-21.7,8.9-34.6,8.9c-7.7,0-13.1-2-16.3-6.1
			c-3.3-7.4-3.2-13.4,0.2-18.9c9.5-15.2,33.9-23.5,57.5-31.6c16.8-5.7,32.7-11.2,42.5-18.8c17.6-13.8,33.8-33.9,46.9-50.1
			c1.3-1.7,2.7-3.4,4.1-5.2c8.9-11.3,18.2-22.9,30.7-31.5c4.7-3.3,10.2-6.1,16.3-8.5h-1.5C296.4,2.3,291.1,5.1,286.6,8.1z"/>
		<path id="XMLID_1069_" class="st1" d="M638.5,139.1L638.5,139.1c1.7,1,2.6,2.4,3.5,3.7l0.2,0.3l0.1,0.2c6.5,3.5,16.2,5.4,27.4,5.4
			l0,0c15.9,0,31.7-3.9,39.4-9.6c4.7-3.5,6.1-7.4,4.4-11.5c-3.4-7.6-16-10.1-29.7-12.1l-0.1,0l-0.1,0
			C660.4,117.5,636.3,125.7,638.5,139.1L638.5,139.1z M683.7,116c13.4,2,25.6,4.4,28.9,11.7c1.7,3.9,0.3,7.7-4.3,11.1
			c-7.5,5.6-23.1,9.4-38.7,9.4l0,0c-10.9,0-20.4-1.9-26.8-5.3l-0.1-0.2c-0.9-1.3-1.9-2.7-3.5-3.8C637.1,124,667.3,117.4,683.7,116z"
			/>
		<path id="XMLID_1066_" class="st1" d="M879.6,148l0.3,0.3l0.1,0c14.3,5.2,38,8.6,58.9,8.6l0,0c13.8,0,37.8-1.6,44.1-12.3v0
			c0.1-3.7-2.2-7-7.1-9.8c-9-5.4-27.1-8.7-47-8.7c-25.2,0-52.4,5.6-52.8,18v0.1l0.2,0.1C877.9,145.3,878.8,146.7,879.6,148z
			 M929,126.7c19.6,0,37.5,3.3,46.4,8.5c4.6,2.8,6.8,5.9,6.8,9.4c-6.1,10.3-29.8,11.9-43.2,11.9l0,0c-20.7,0-44.1-3.4-58.4-8.5
			l-0.1-0.2c-0.9-1.3-1.8-2.7-3.4-3.7C877.5,132.1,904.3,126.7,929,126.7z"/>
		<path id="XMLID_1063_" class="st1" d="M245.8,392.5c-5.1,12.4-10.3,25.4-8.2,44.7c16.8,33.6,36.7,58.9,60.6,77.6
			c5.6,4.3,12.4,9.3,21.1,13.3c12.4,5.7,30,9.1,47,9.1l0,0c17.1,0,31.7-3.4,41.2-9.6c10.5-6.9,14.4-16.7,11.5-29.3
			c-1.7-7-6.1-14.5-10.5-21.7c-4.4-7.2-8.9-14.6-10.5-21.6c-6.5-27.4,13.9-55.8,54.2-75.9c17.1-8.6,34.8-15.5,51.8-22.2
			c18.4-7.3,37.5-14.9,55.5-24.3c27.4-14.3,58.4-30.5,63.5-55v-0.1v0c-3.3-11.6-9.5-23.5-32.4-32c-13-4.9-27.3-7.1-45.2-7.1
			c-15.2,0-30.9,1.6-47.5,3.4c-17.9,1.8-36.4,3.8-55.6,3.8c-4.7,0-9.4-0.1-13.8-0.3c-9.1-0.5-20.6-2.1-32.7-3.8
			c-16.2-2.3-33.1-4.6-46.4-4.6c-2.8,0-5.3,0.1-7.7,0.3c-18,1.6-37,10.5-51.6,18.2c-24.3,12.7-47.2,25.9-51,36.8
			c-1.5,4.3-1,11.1-0.1,16c1.3,7.5,4.2,13.9,6.9,20c4.7,11,9.6,22.3,7.3,40.4C252.1,377.2,249.1,384.7,245.8,392.5z M246.9,327.9
			c-2.7-6.1-5.5-12.5-6.8-19.9c-0.9-4.9-1.4-11.7,0-15.9c3.7-10.8,26.6-23.9,50.7-36.5c14.5-7.5,33.4-16.4,51.1-18
			c2.3-0.2,4.7-0.3,7.5-0.3c13.2,0,30,2.3,46.2,4.6c12.1,1.7,23.6,3.3,32.7,3.8c4.5,0.2,9.2,0.3,14,0.3c19.3,0,37.9-1.9,55.8-3.8
			c16.6-1.7,32.3-3.3,47.4-3.3c17.6,0,31.9,2.3,44.8,7c22.6,8.4,28.7,20.1,31.9,31.7c-5.1,24.2-35.9,40.4-63.2,54.7
			c-18.1,9.4-37.1,16.9-55.4,24.2c-17.1,6.7-34.7,13.7-51.9,22.3c-40.6,20.2-61,48.7-54.6,76.3c1.7,7.1,6.2,14.5,10.6,21.7
			c4.4,7.2,8.9,14.6,10.4,21.6c2.9,12.4-0.9,22.2-11.3,29c-9.2,6.1-23.6,9.4-40.5,9.4l0,0c-16.8,0-34.1-3.4-46.5-9
			c-8.5-3.9-15.4-8.9-20.9-13.2c-23.9-18.6-43.7-43.9-60.5-77.4c-2.1-19.2,3.1-32.1,8.3-44.4c3.3-7.9,6.3-15.4,7.4-24.3
			C256.5,350.2,251.7,338.8,246.9,327.9z"/>
		<path id="XMLID_1060_" class="st1" d="M301.5,391.2c0.9,2.3,1.5,4.6,2.3,7.1c2.4,8.8,5.3,18.9,21,23.6l0.1,0h0.1
			c19.1-0.8,31.1-10.6,43.9-20.9c4.6-3.7,9.2-7.5,14.3-10.8c28.2-18.7,59.9-31.1,90.6-43.2c21.6-8.5,42-16.5,60-26.2
			c5.8-1.6,9.7-4.5,13.4-7.3c2.9-2.1,5.8-4.3,9.6-6c16.5-11.9,22-25.8,13.9-35.4c-5.1-6.1-17.7-13.3-49.2-13.3
			c-4.3,0-8.7,0.2-13.3,0.4c-10.1,0.6-21.8,1.8-33.9,3.1c-13.6,1.4-28.9,3-44.5,4c-3.3,0.2-6.3,0.3-9.4,0.6
			c-41.4,2.4-66.3,3.9-91.2,20.8c-17.7,12.1-27.1,27-29.8,47c-1.6,12.8-0.3,26.8,0.8,39.1C300.8,380.1,301.3,386,301.5,391.2z
			 M300.3,334.8c2.6-19.9,12-34.7,29.5-46.6c24.6-16.8,48-18.2,90.6-20.7c3.1-0.2,6.1-0.3,9.4-0.5c15.6-1,30.9-2.6,44.5-4
			c12.2-1.3,23.8-2.5,33.9-3.1c4.6-0.3,9-0.4,13.2-0.4c31.1,0,43.5,7.1,48.5,13c7.8,9.4,2.5,23.1-13.8,34.7c-3.9,1.7-6.9,3.9-9.8,6
			c-3.9,2.9-7.5,5.6-13.1,7.2l-0.1,0c-18,9.7-38.5,17.7-60,26.2c-30.7,12.1-62.4,24.5-90.7,43.3c-5.1,3.3-9.7,7.1-14.3,10.8
			c-12.6,10.2-24.6,19.9-43.2,20.7c-15.3-4.6-17.9-14.1-20.4-23.2c-0.7-2.5-1.3-4.9-2.2-7.1c-0.1-5.2-0.7-11-1.3-17.2
			C300,361.6,298.7,347.6,300.3,334.8z"/>
		<path id="XMLID_1057_" class="st1" d="M876.9,330.2c6.8,36.4,13.2,70.8,62.5,95.4c33.1,16.5,86.7,34.1,138,34.1l0,0
			c31.3,0,57-6.7,76.4-19.8c16.8-11.5,25.4-24.8,35.3-40.3c1.1-1.7,2.2-3.4,3.3-5.2c2-3,3.9-5.9,5.9-8.8
			c11-16.8,21.5-32.6,24.1-45.7c5.8-28.9-12.4-40.6-35-51.8c-35.1-17.5-80.9-18.8-129.3-20.2c-11.4-0.3-25-1-39.3-1.8
			c-22.6-1.2-48-2.5-69.4-2.5c-23,0-38.1,1.5-46.3,4.6c-34.3,13.1-30.2,44.9-27,57.9L876.9,330.2z M903.6,268.4
			c8.1-3.1,23-4.6,45.9-4.6c21.3,0,46.8,1.3,69.3,2.5c14.3,0.7,27.9,1.5,39.3,1.8c48.3,1.4,93.9,2.7,128.8,20.1
			c22.4,11.1,40.5,22.7,34.7,51.4c-2.6,13-13,28.8-24,45.5c-1.9,2.9-3.9,5.9-5.8,8.9c-1.2,1.7-2.3,3.5-3.4,5.2
			c-9.9,15.4-18.5,28.8-35.3,40.2c-19.2,13.1-44.6,19.7-75.7,19.7c-51,0-104.5-17.6-137.4-34.1c-49.1-24.4-55.4-58.7-62.2-95
			l-0.9-4.3C873.7,312.9,869.7,281.3,903.6,268.4z"/>
		<path id="XMLID_1054_" class="st1" d="M924.1,336.1c5.9,31.4,11,58.5,55.2,78.6c20.5,9.4,57.6,20.3,94.2,20.3l0,0
			c18.2,0,33.6-2.7,45.8-8.1c34.5-15.4,49.4-47.3,51.8-70c2.7-26.2-14-49.2-44.6-61.5c-28.2-11.3-64-12.4-101.9-13.6
			c-8.3-0.2-16.6-0.5-24.8-0.5c-23.8,0-53.2,1.7-68.3,15.1c-8.6,10.2-8.1,22.1-7.5,33.6C923.9,332.1,924,334.1,924.1,336.1z
			 M932.2,296.7c14.8-13.1,43.9-14.8,67.5-14.8c8.3,0,16.4,0.2,24.8,0.5c37.7,1.2,73.5,2.3,101.5,13.5c30.3,12.2,46.9,35,44.2,61
			c-2.3,22.6-17.2,54.4-51.5,69.6c-12,5.3-27.1,8-45.2,8l0,0c-36.4,0-73.3-11-93.8-20.3c-43.8-20-48.6-45.7-54.7-78.2
			c-0.1-2-0.1-4-0.3-6.1C924.2,318.6,923.7,306.7,932.2,296.7z"/>
		<path id="XMLID_1051_" class="st1" d="M381.2,331.1l0.2,0.1c1.3,0.5,2.5,1.2,3.6,1.9c1.4,0.8,2.8,1.7,4.5,2.2l0.1,0h0.2
			c25.2-2.6,53.9-10.1,74.9-19.6c8.3-3.8,18-9,20-15.4l0.1-0.1l-0.1-0.1c-1.1-1-2.7-1.8-4.1-2.6c-1.1-0.6-2.2-1.2-3.2-1.8l-0.1-0.1
			H477c-3.7-0.2-7.8-0.3-11.8-0.3c-22,0-51.9,3.8-69.9,14.5c-9.9,5.9-14.6,13.1-14,21.4V331.1z M395.9,310
			c17.7-10.6,47.4-14.4,69.2-14.4c4,0,7.9,0.1,11.6,0.3c1,0.7,2.1,1.3,3.1,1.8c1.5,0.8,2.9,1.6,3.9,2.5c-1.9,6.3-11.4,11.3-19.6,15
			c-20.8,9.5-49.3,17-74.3,19.6c-1.5-0.5-2.8-1.3-4.1-2.1c-1.1-0.7-2.3-1.4-3.6-2C381.7,322.8,386.2,315.8,395.9,310z"/>
		<path id="XMLID_1048_" class="st1" d="M1016.4,400.5c14.8,5.5,31.3,8.5,46.6,8.5l0,0c20.2,0,37.1-5,49.1-14.6
			c27.9-22.2,15.3-64.1-24.8-81.5c-10.8-4.8-29.4-10.5-56-10.5c-6.3,0-12.6,0.3-19.1,1c-28,2.7-42.6,15.5-42.1,36.8
			C970.6,356.4,977.2,385.8,1016.4,400.5z M1012.4,303.9c6.5-0.6,12.8-0.9,19-0.9c26.3,0,44.7,5.6,55.5,10.3
			c18.9,8.3,32.5,22.4,37.4,38.9c4.8,16.1-0.1,31.7-13,42c-11.8,9.4-28.6,14.3-48.3,14.3l0,0c-15.1,0-31.5-2.9-46.1-8.4
			c-38.9-14.5-45.4-43.7-45.8-59.9C970.6,319.1,985,306.6,1012.4,303.9z"/>
		<path id="XMLID_1047_" class="st1" d="M112,543.4c3.7,3.8,7.2,7.5,11.4,10.5l0.2,0.1c5.8,4.3,15.6,11.5,29.3,10.3
			c14.8-1.3,34.3-11.4,30.7-26.2c-2.8-11.9-16.6-20.6-43.6-27.3c-1.7-0.4-3.5-0.9-5.3-1.3c-13-3.1-25.3-6.1-30.9-13.3
			c-5.9-14.1-7-33.1-8.3-53.3c-1-16.7-2.1-34-6-48.8c-7.5-28.5-32.8-45.4-77.3-51.9c-3.9-0.6-8-1.1-12.3-1.5v0.5
			c4.3,0.3,8.3,0.8,12.1,1.4c44.1,6.4,69.2,23.2,76.7,51.4c3.9,14.7,4.9,32,6,48.7c1.2,20.2,2.4,39.2,8.3,53.4
			c5.9,7.4,18.3,10.3,31.5,13.5c1.8,0.5,3.5,0.8,5.3,1.3c26.6,6.7,40.3,15.2,43,27c3.5,14.5-15.5,24.4-29.9,25.6
			c-13.2,1.1-22.8-5.9-28.6-10.1l-0.2-0.1c-4.1-3.1-7.7-6.7-11.3-10.5c-11.5-12-23.4-24.4-57.5-21.1c-16.1,1.5-34.2,6.4-55.2,15v0.7
			c21.2-8.7,39.3-13.6,55.4-15.1C88.8,519.4,100.6,531.7,112,543.4z"/>
		<path id="XMLID_1046_" class="st1" d="M22.1,475.5C41.8,463,52.3,444.6,51,424.8c-1.3-19-13.7-36.4-33.1-46.6
			c-5.8-2.4-11.8-4-17.8-4.8v0.5c5.9,0.9,11.7,2.5,17.2,4.7c19.3,10.1,31.5,27.4,32.9,46.2c1.3,19.6-9.1,38-28.6,50.4
			C15,479.3,7.7,482.7,0,485.8v0.6C7.9,483.3,15.4,479.8,22.1,475.5z"/>
		<path id="XMLID_1043_" class="st1" d="M821.6,478.8c-0.9-3.4-3.6-7.5-5.9-10.8C797,441.2,753,413,721,397.1
			c-22-10.9-40.2-17.3-54.2-18.9c-3-0.4-6.3-0.6-9.6-0.6c-38.2,0-85.1,22.4-88,42c0.1,1,0.5,2,1,2.9c0.5,1.5,1.2,2.9,0.9,4.5v0.1
			l0.1,0c13.6,18.4,29.1,35.7,45.9,51.6c7.6,7.2,15.2,14.1,25.3,19.9c24.3,14,66.6,23.8,102.7,23.8l0,0c20,0,36.7-2.9,49.6-8.5
			C816.3,504.3,825.4,492.5,821.6,478.8z M745,521.8L745,521.8c-35.9,0-77.9-9.7-102-23.6c-10-5.7-17.6-12.6-25.2-19.7
			c-16.8-15.9-32.2-33.2-45.8-51.5c0.2-1.6-0.4-3.2-1.1-4.6c-0.4-0.9-0.8-1.9-1-2.8c3-19.4,49.4-41.4,87.2-41.4
			c3.3,0,6.5,0.2,9.5,0.5c13.8,1.6,31.9,8,53.8,18.8c31.9,15.9,75.8,44,94.5,70.8c2.3,3.2,5,7.3,5.9,10.6
			c3.7,13.5-5.4,25.1-26.8,34.4C781.3,518.9,764.7,521.8,745,521.8z"/>
		<path id="XMLID_1040_" class="st1" d="M738.1,435.8c-19.2-10.1-42.1-17.4-59.9-19c-3.3-0.3-6.5-0.5-9.6-0.5c-11,0-19.9,2-26.4,5.9
			c-7.7,4.6-11.4,11.7-10.8,20.1c7.8,19.3,15.6,34.9,39.2,46c14.8,7,37.7,11.6,58.1,11.6l0,0c24.5,0,41.5-6.5,46.5-17.7
			c1.5-3.3,1.2-8.2,0.3-11.5C772.6,459.5,759,446.8,738.1,435.8z M774.3,482c-4.9,11-21.5,17.3-45.6,17.3l0,0
			c-20.2,0-42.8-4.5-57.6-11.5c-23.3-11-31.1-26.5-38.9-45.7c-0.6-8.2,3.2-15.2,10.6-19.8c6.3-3.8,15-5.7,25.8-5.7
			c2.9,0,6.1,0.2,9.5,0.5c36.9,3.4,90.3,30,96.6,53.5C775.5,474,775.8,478.8,774.3,482z"/>
		<path id="XMLID_1037_" class="st1" d="M952.7,523.2l-0.1,0l-0.2,0c-2.5-0.2-4.8-0.3-7.1-0.3c-5.1,0-10,0.5-15.4,1.3
			c-28.2,4.7-56.5,18.8-65.9,32.6c-6.7,9.8-3.9,20.6-1.2,31c2.5,9.7,4.8,18.8,0.1,26.8c-7.3,12.3-26.5,20.1-45.1,27.6
			c-19.7,8-40.1,16.2-45.1,29.7c-3,9.6,1.4,18.7,12.5,26.3C801,709,829.8,716,858.6,716l0,0c18.8,0,35.3-2.9,47.8-8.3
			c9.8-4.3,16.6-10.1,23.7-16.3l1.1-1c7.1-8,9.4-17.7,11.9-28c2.2-8.9,4.5-18.2,10-27.3c3.3-5.4,6.7-10,10.1-14.3
			c10.2-13.4,18.9-25,14.7-53.4C975.4,551.1,970.4,531.3,952.7,523.2z M962.3,620.6c-3.3,4.4-6.8,8.9-10.1,14.4
			c-5.5,9.2-7.7,18.5-10,27.4c-2.5,10.2-4.9,19.8-11.8,27.8l-1,0.9c-7.5,6.4-13.8,12-23.6,16.2c-12.2,5.4-28.6,8.2-47.2,8.2
			c-28.5,0-57.1-6.9-72.7-17.5c-10.9-7.5-15.2-16.5-12.3-25.9c4.9-13.3,24.3-21.1,44.7-29.3c18.8-7.6,38.1-15.4,45.5-27.9
			c4.8-8.2,2.5-17.3,0-27c-2.7-10.4-5.5-21.2,1.1-30.8c9.2-13.8,37.3-27.7,65.2-32.3c5.4-0.9,10.2-1.3,15.2-1.3
			c2.2,0,4.5,0.1,6.9,0.3c17.5,8,22.5,27.7,24.9,43.8C981.1,595.8,972.4,607.3,962.3,620.6z"/>
		<path id="XMLID_1034_" class="st1" d="M133.8,624.7c-4.3-2.1-9.2-3.2-14.4-3.2c-8.9,0-18.8,3.2-27.1,8.8
			c-10.2,6.9-16,15.9-14.2,22.3c4.1,11,21.4,16.7,36.4,16.7l0,0c10.5,0,19.6-2.6,25.6-7.4C152.2,652.3,148.8,632.2,133.8,624.7z
			 M139.3,661.6c-5.9,4.6-14.7,7.2-25,7.2l0,0c-14.6,0-31.5-5.6-35.5-16.3c-1.7-6.2,3.9-15.1,14.1-21.9c8.1-5.5,17.8-8.6,26.4-8.6
			c5.1,0,9.7,1,13.9,3.1C148,632.4,151.3,652.2,139.3,661.6z"/>
		<path id="XMLID_1031_" class="st1" d="M457.8,692.1c-0.7-0.8-1.5-1.6-1.8-2.5l-0.1-0.1l-0.1-0.1c-3.5-1.4-7.5-2.2-11.7-2.2
			c-6.5,0-13,1.8-17.8,4.7c-4.4,2.8-6.5,6.2-6.1,9.6l0.1,0.1c3.1,3.6,8.4,5.6,15.2,5.6l0,0c10.5,0,23.2-5.2,24.3-12.2v0v0
			C459.6,693.9,458.6,693,457.8,692.1z M435.6,706.7L435.6,706.7c-6.3,0-11.5-1.9-14.4-5.2c-0.5-3.3,1.5-6.5,5.8-9.2
			c4.5-2.8,10.9-4.5,17.1-4.5c3.9,0,7.7,0.8,11,2.1c0.4,0.9,1.2,1.7,1.9,2.5c0.8,0.9,1.7,1.7,1.9,2.6
			C457.8,701.7,445.7,706.7,435.6,706.7z"/>
		<path id="XMLID_1030_" class="st1" d="M1659.4,9.5c21.5,6,46.8,6.6,67.7,1.7c10.5-2.5,19.4-6.4,26.2-11.1h-1.1
			c-6.6,4.6-15.1,8.2-25.4,10.6c-20.8,4.9-45.9,4.3-67.1-1.6c-6.9-1.9-13.4-4.9-19.7-9h-1.2C1645.4,4.4,1652.2,7.5,1659.4,9.5z"/>
		<path id="XMLID_1029_" class="st1" d="M897.1,30.5c8.4,3.4,16.4,7,24.1,10.5c18.7,8.4,36.3,16.3,55.8,20.1
			c21.8,6.2,42.6,9.4,62.4,9.4c16.4,0,32.2-2.1,47-6.5c43.8-12.7,68.5-40.4,77.9-64h-0.9c-9.5,23.4-33.9,51-77.4,63.5
			c-32.5,9.4-69.1,8.4-108.7-2.9c-19.4-3.7-36.9-11.6-55.6-20.1c-7.7-3.4-15.7-7-24.1-10.5c-9.1-3.7-18.4-7.3-27.6-10.8
			C853.5,13,837.4,6.8,823.1,0h-1.5c14.5,7,31,13.3,47.9,19.7C878.7,23.2,888.1,26.8,897.1,30.5z"/>
		<path id="XMLID_1028_" class="st1" d="M1211.6,40.1c5.9,8.3,19,12.3,39.9,12.3c10.6,0,21.6-1,30.4-1.9h0.3c1.9-0.2,4-0.3,6.2-0.3
			c8.3,0,16.8,1.4,25,2.8c4.2,0.7,8.7,1.5,12.9,2c3.5,0.5,6.9,0.8,10.2,1.2c14,1.6,28.6,3.2,41.8,6.7c5.2,1.4,10.5,2.7,15.7,4
			c25.7,6.4,52.2,13,69.5,25.9c1.1,0.8,2,1.6,3,2.4c12,10.3,22.5,21.3,32.5,32c11.3,12.1,23,24.4,37.1,35.8
			c13.6,11.1,32,23.3,49.8,35.1c6.2,4.1,12,8,17.6,11.9c28.2,19.2,54.8,37.3,103.9,37.3h0.1c12.6,0,25.9-1.1,40.9-3.4
			c42.5-6.6,117.6-23.1,143.3-58.8c6.8-9.5,11.3-22.7,16.1-36.6c3.7-10.5,7.4-21.4,12.2-30.5v-1.7c-5.3,9.4-9.3,21-13,32.1
			c-4.9,14-9.4,27.1-16.1,36.5c-25.6,35.5-100.3,51.9-142.7,58.4c-14.9,2.3-28.2,3.4-40.7,3.4h-0.1c-48.6,0-75.2-18-103.2-37.2
			c-5.7-3.8-11.5-7.7-17.7-11.8c-17.7-11.8-36.1-24.1-49.8-35.1c-14-11.3-25.7-23.7-37-35.7c-10.1-10.7-20.5-21.8-32.5-32
			c-0.9-0.8-2-1.7-3.1-2.5c-17.4-12.9-44-19.6-69.7-26c-5.3-1.3-10.6-2.6-15.7-4c-13.3-3.5-27.9-5.2-42-6.8
			c-3.5-0.4-6.9-0.8-10.2-1.2c-4.2-0.5-8.6-1.3-12.8-2c-8.3-1.4-16.8-2.8-25.3-2.8c-2.2,0-4.4,0.1-6.3,0.3l-0.4,0
			c-8.7,0.8-19.6,1.8-30.1,1.8c-20.4,0-33.3-3.9-39-11.9c-6-8.2-4-22.2-2.2-34.6c0.3-1.9,0.5-3.6,0.7-5.4h-0.9
			c-0.2,1.7-0.4,3.5-0.7,5.3C1207.6,17.7,1205.7,31.8,1211.6,40.1z"/>
		<path id="XMLID_1027_" class="st1" d="M1579.7,15.7c26.4,20.6,73.3,32.9,125.4,32.9c13,0,25.6-0.8,37.4-2.3
			c46.3-5.9,61.2-24.1,67.7-46.3h-0.9c-2.1,7-4.9,13.6-9.4,19.6c-10.7,14.2-29.1,22.6-57.6,26.2c-11.8,1.5-24.4,2.3-37.3,2.3
			c-51.8,0-98.4-12.2-124.7-32.7c-2.9-4.4-5.4-9.7-7.8-15.4h-0.9C1574.1,5.8,1576.7,11.2,1579.7,15.7L1579.7,15.7z"/>
		<path id="XMLID_1026_" class="st1" d="M1327.1,26.5c23.6,2,46.1,6,67.7,9.9c14,2.5,28.5,5.1,43.2,7.2c9.4,1.3,18.8,2.3,27.1,3.1
			c8.5,0.7,16,1.1,22.3,1.1l0,0c12.9,0,20.6-1.5,23-4.6c6.6-8.2,11.6-25.9,11.9-43.1h-0.9c-0.3,17.1-5.3,34.7-11.8,42.9
			c-2.3,2.8-9.8,4.3-22.2,4.3c-6.2,0-13.6-0.3-22.2-1.1c-8.3-0.7-17.6-1.8-27-3.1c-14.7-2-29.1-4.6-43.1-7.2
			c-21.8-3.9-44.3-8-67.9-9.9c-23.3-1.9-41.9-11.1-52.8-25.9h-1C1284.4,15.1,1303.3,24.5,1327.1,26.5z"/>
		<path id="XMLID_1025_" class="st1" d="M1846.1,13.3c-1.2,18.8-2.3,35.2-24,44.8c-22.6,10.1-62.2,12.9-91,15
			c-2.9,0.2-5.7,0.5-8.4,0.7c-4.9,0.4-10.2,0.6-15.5,0.6l0,0c-29.4,0-60.8-5.7-91.1-11.2c-27.1-4.9-55.2-10-81.4-10.8h-0.1l-0.1,0
			c-15,2.5-18.7,11.6-17.2,19.4c4.3,30.4,22.8,55.2,64.3,85.8c8.3,6.1,16.2,12.4,23.7,18.4c12.9,10.2,25,19.9,39.2,29
			c21.2,13.8,47.9,20.6,79.2,20.6l0,0c36.3,0,77.2-9.7,112.1-26.8c36-22.4,41.4-52.2,43.9-80.7c0.2-2.2,0.3-4.5,0.4-7
			c0.5-11.5,1.1-25.7,10.9-32.8c8.6-6.2,18.7-11,29.1-15.2v-0.6c-10.7,4.3-21,9.1-29.8,15.6c-9.9,7.1-10.5,21.5-11.1,33
			c-0.1,2.5-0.2,4.8-0.4,7c-2.4,28.4-7.8,58.1-43.6,80.4c-34.7,16.9-75.3,26.7-111.5,26.7c-31.1,0-57.6-6.9-78.5-20.5
			c-14.1-9.2-26.3-18.8-39.1-29c-7.5-6-15.4-12.2-23.7-18.4c-41.3-30.5-59.9-55.3-64.1-85.6c-1.5-7.5,2.1-16.5,16.5-18.8
			c26,0.9,54,5.9,81.1,10.8c30.4,5.5,61.8,11.2,91.4,11.2l0,0c5.3,0,10.7-0.2,15.6-0.6c2.7-0.2,5.5-0.4,8.4-0.6
			c28.9-2.1,68.7-5,91.4-15.1c22.2-9.8,23.2-26.2,24.5-45.2c0.3-3.9,0.5-8,0.9-12.1c0.1-0.4,0.1-0.7,0.2-1.1h-0.9
			c0,0.4-0.1,0.7-0.1,1.1C1846.6,5.2,1846.3,9.3,1846.1,13.3z"/>
		<path id="XMLID_1024_" class="st1" d="M1859.9,267l-0.1,0c-6.1,2.8-15.4,7-14.4,12.9l0.1,0.1l0.1,0.1c2,0.9,3.7,1.9,5.3,2.9
			l0.1,0.1h0.1c11.3,1.3,22.8,2,34.2,2l0,0c11.7,0,23.4-0.7,34.7-2.1v-0.5c-11.4,1.4-23,2.1-34.7,2.1c-11.4,0-22.8-0.7-33.9-2
			c-1.5-1-3.1-2-5.1-2.8c-0.9-5.5,7.7-9.5,14-12.4l0.1-0.1c10.8-4.9,25-8.7,40.1-12.6c6.5-1.7,13-3.4,19.4-5.3v-0.6
			c-6.5,1.9-13.2,3.7-19.8,5.4C1885.1,258.2,1870.8,261.9,1859.9,267z"/>
		<path id="XMLID_1023_" class="st1" d="M1898.6,4.3c1,7.1,11,13.4,21.4,13.4v-0.5c-10,0-19.5-6-20.4-12.9c-0.3-1.5-0.3-2.9-0.1-4.3
			h-0.9C1898.4,1.4,1898.4,2.8,1898.6,4.3z"/>
		<path id="XMLID_1020_" class="st1" d="M1774.5,99.2c-5.9,0-12.1,0.4-18.2,1.1c-13.6,1.5-28.1,4-43.5,6.6
			c-17.2,2.9-35.2,6-52.2,7.7c-15.8,1.6-22.6,5.7-20.8,12.4v0c5.5,6.7,9.8,14.2,14.3,22.1c9.7,17.2,19.8,35,44.4,44.3
			c11.6,4.3,25.7,6.6,40.8,6.6l0,0c24.6,0,49.6-5.9,67.3-15.8c14.5-8.2,25.1-21.5,28.3-35.7c3.5-14.9-1.7-29-14.3-38.8
			C1812.2,103.2,1794.5,99.2,1774.5,99.2z M1805.9,183.7c-17.5,9.8-42.5,15.7-66.7,15.7c-15,0-28.9-2.3-40.3-6.6
			c-24.4-9.2-34.3-26.8-44.1-44c-4.5-7.9-8.7-15.4-14.2-22.1c-1.7-6.4,4.7-10.2,20.1-11.7c17-1.8,35.1-4.7,52.4-7.7
			c15.3-2.6,29.9-5.1,43.3-6.6c6.2-0.7,12.2-1,18.1-1c19.7,0,37.1,3.9,45.3,10.3C1847.2,131.1,1834.6,167.6,1805.9,183.7z"/>
		<path id="XMLID_1017_" class="st1" d="M755.1,327.2c4.5,4.9,9.2,10,13,15.1c3.5,4.3,6.9,8.9,10.3,13.3
			c20.7,27.1,42.1,55.1,73.2,77.6c11.9,8.6,26.4,16.9,40.3,24.9c13.4,7.6,26,14.8,36,22.1c4.9,3.4,9.1,7.2,13.2,10.9
			c8.6,7.7,16.7,14.9,30.2,19.9l0.1,0l3.9-0.2c51.6-1.8,96.3-3.3,143.9-8.3c33.8-3.5,57.8-7.3,71-11.2c27.4-8.1,34.8-22.5,42.8-37.8
			c0.9-1.6,1.7-3.2,2.5-4.8c11.6-21.7,28.4-43.7,71.8-57.4l0.1-0.1c0.3-0.2,0.7-0.5,1.1-0.7c9-2.7,18-5.5,27-8.2
			c15.7-4.7,31.9-9.7,48-14.5c6.9-2.1,13.8-4.2,20.6-6.2c10.5-3.3,21.4-6.6,32.2-9.7c7.5-2.1,14-4.9,20.6-7.7
			c1.6-0.7,3.3-1.4,4.9-2.1c6-2.5,12.6-5.1,20.2-6.8c14.2-3.2,30-3.6,45.2-4c13.2-0.3,26.8-0.7,39.5-2.8c12.2-2,20.6-3.8,27.7-9.8
			c22.8-19.1,11.2-33.5-7.5-51.6c-19.7-19-43.7-33.8-71.3-44c-4.9-1.8-10.3-3.3-15.5-4.7c-5.8-1.6-11.7-3.2-17-5.3
			c-6.2-2.5-12.2-5.1-18-7.7c-4.7-2.1-9.5-4.3-14.4-6.4c-20-8.3-44-17.5-70.9-23c-8.9-1.8-19.5-2.1-26.8-2.1
			c-7.4,0-15.1,0.4-21.7,1.1c-8.3,0.9-15,3-22.2,5.3c-3,1-6.2,2-9.5,2.9c-3.6,0.9-7.3,1.6-10.9,2.4c-4.7,0.9-9.5,1.9-13.8,3.3
			c-10.9,3.4-21.5,7.5-31.7,11.4c-9.8,3.8-20,7.6-30.5,11c-49.4,16-91.7,25-132.9,28.4c-12.3,1-24.8,1.6-37.1,1.6
			c-15.4,0-30.7-0.8-45.5-2.4c-11.6-1.2-23.5-3.1-35.1-5c-20.3-3.3-41.2-6.6-61.7-6.6c-11.3,0-21.5,1-31.1,3
			c-19.6,4.1-37,12.7-55.5,21.8c-9.4,4.6-19.2,9.4-29.7,14c-2.4,1-5.4,2.2-8.8,3.5c-7.5,3.1-16.9,6.8-25,10.7
			c-15,7.4-19.1,14.1-14.2,23.4C740.3,311.1,747.4,319,755.1,327.2z M750.9,280.6c8.1-3.9,17.4-7.7,25-10.7c3.4-1.3,6.3-2.5,8.7-3.6
			c10.6-4.5,20.4-9.3,29.9-14c18.4-9.1,35.7-17.6,55.2-21.8c9.6-2,19.7-3,30.9-3c20.4,0,41.2,3.4,61.4,6.7
			c11.6,1.9,23.6,3.8,35.2,5.1c14.9,1.6,30.2,2.4,45.6,2.4c12.2,0,24.8-0.5,37.1-1.6c41.5-3.4,83.8-12.5,133.3-28.5
			c10.4-3.4,20.6-7.3,30.5-11c10.1-3.9,20.8-7.9,31.5-11.3c4.4-1.4,9.1-2.4,13.7-3.3c3.7-0.7,7.4-1.5,11-2.5
			c3.3-0.9,6.5-1.9,9.5-2.8c7.1-2.2,13.8-4.4,21.9-5.2c6.6-0.7,14.2-1.1,21.6-1.1c7.3,0,17.7,0.4,26.5,2.2
			c26.7,5.4,50.7,14.6,70.6,22.9c4.9,2,9.8,4.2,14.4,6.3c5.9,2.6,11.8,5.2,18,7.7c5.5,2.1,11.4,3.8,17.2,5.4
			c5.1,1.4,10.4,2.8,15.3,4.6c27.6,10.2,51.4,24.9,71,43.8c18.6,18,30,32.2,7.5,51.1c-6.9,5.9-15.2,7.6-27.1,9.6
			c-12.7,2.2-26.3,2.5-39.3,2.9c-15.3,0.3-31.1,0.8-45.6,4c-7.6,1.7-14.2,4.3-20.3,6.8c-1.7,0.7-3.3,1.4-4.9,2.1
			c-6.5,2.8-13.1,5.6-20.4,7.7c-10.9,3.1-21.8,6.4-32.3,9.6c-6.7,2.1-13.7,4.3-20.6,6.3c-16,4.8-32.3,9.7-47.9,14.5
			c-9.1,2.8-18,5.6-27.1,8.3l-0.1,0c-0.3,0.2-0.8,0.5-1.1,0.7c-43.7,13.9-60.4,36-72.1,57.7c-0.9,1.6-1.7,3.2-2.5,4.8
			c-7.9,15.2-15.4,29.6-42.4,37.5c-13.2,3.9-37,7.7-70.7,11.2c-47.5,5-92.2,6.5-143.8,8.3l-3.5,0.1c-13.3-4.9-21.4-12-29.9-19.6
			c-4.1-3.7-8.3-7.5-13.2-11c-10.2-7.3-22.8-14.5-36.1-22.1c-13.9-8-28.4-16.3-40.2-24.9c-31.1-22.4-52.5-50.4-73.1-77.4
			c-3.4-4.4-6.9-9-10.2-13.3c-4-5.1-8.6-10.2-13.2-15.1c-7.5-8.3-14.6-16-18.8-23.7C732.3,294.4,736.2,287.8,750.9,280.6z"/>
		<path id="XMLID_1014_" class="st1" d="M833.8,362l1.7,3.8c18,38.6,44.8,61.5,98.8,84.3l1.3,0.6c29.1,12.3,54.2,22.9,82.2,28
			c14,2.6,31.1,3.9,49.4,3.9c0.1,0,0.1,0,0.1,0c24.3,0,49-2.5,66.1-6.5c45.2-10.8,61.8-33.5,80.8-59.9c25-34.6,68.9-79.3,135.4-96.1
			c12-3,23.7-3.6,36-4.3c4.7-0.2,9.6-0.5,14.6-0.9c18.8-1.5,39.9-3.8,64.4-6.8c3.5-0.4,6.9-0.8,10.4-1.3c18-2.3,41.7-8.8,49.5-19.5
			c5.8-7.9,4.9-15.2-2.3-21.5c-21.7-18.8-96.4-25.2-127.1-25.2h-0.6c-13.6,0-27.5,0.8-40.9,1.6c-7.7,0.5-15.5,1-23.1,1.2
			c-12.9,0.5-23.4,2.6-36.4,7.3c-13.4,4.8-27.7,7.1-45.1,7.1c-13,0-26.2-1.2-40.1-2.5c-4.2-0.4-8.6-0.8-13-1.2
			c-18.2-1.5-37.7-2.2-61.6-2.2c-14.8,0-29.7,0.3-44.1,0.5c-14.3,0.2-29,0.5-43.5,0.5c-26.4,0-47.7-0.9-67.3-2.9
			c-5.7-0.6-11.9-1.5-18.5-2.3c-14.1-2-30.1-4.2-46.1-4.2c-8.9,0-16.8,0.6-24.2,1.9c-37.1,6.4-68.1,32.5-73.8,52.9
			c-2.1,7.6-1.8,15.4,0.9,24.6C822.1,336.8,827.8,349,833.8,362z M817.8,298.4c5.7-20.2,36.3-46.1,73.1-52.5
			c7.5-1.3,15.3-1.9,24-1.9c16,0,31.9,2.2,45.9,4.1c6.5,0.9,12.8,1.8,18.6,2.4c19.6,2,40.9,2.9,67.4,2.9c14.5,0,29.2-0.2,43.5-0.5
			c14.4-0.3,29.3-0.5,44.1-0.5c23.7,0,43.3,0.7,61.4,2.2c4.4,0.4,8.8,0.8,13,1.2c14,1.3,27.1,2.5,40.2,2.5c17.5,0,32.1-2.3,45.6-7.1
			c12.8-4.6,23.2-6.7,35.9-7.2c7.6-0.3,15.4-0.8,23.1-1.2c13.4-0.8,27.4-1.6,40.9-1.6h0.6c30.5,0,104.8,6.4,126.3,25
			c7.1,6.2,7.9,13.3,2.3,21.1c-7.7,10.5-31.1,16.9-48.8,19.2c-3.4,0.4-6.9,0.8-10.3,1.3c-24.6,3-45.6,5.2-64.4,6.8
			c-4.9,0.4-9.9,0.7-14.6,0.9c-12.4,0.7-24.2,1.3-36.3,4.4c-66.8,16.8-110.7,61.7-135.9,96.4c-19,26.3-35.4,49-80.3,59.6
			c-17,4.1-41.6,6.5-65.8,6.5h-0.1c-18.2,0-35.2-1.3-49.1-3.9c-27.8-5.1-52.8-15.7-82-28l-1.3-0.6c-53.8-22.7-80.5-45.5-98.4-84
			l-1.7-3.8c-6.1-12.9-11.8-25.2-16-39.1C815.9,313.7,815.7,305.9,817.8,298.4z"/>
		<path id="XMLID_1013_" class="st1" d="M1838.7,352.6l-0.1,0.1c-2.1,2.1-4.1,4-5.9,5.6c-6.3,5.8-10,9.3-11.9,18.9
			c-1.5,7.6-0.9,15.4-0.4,22.9c0.6,8.9,1.3,18.1-1.4,27.2c-9.2,32.1-53.6,65.2-103.3,76.9c-4.8,1.1-11.4,2.6-15.9,3.1
			c-3.6,0.3-7,0.6-10.2,0.6l0,0c-29.2,0-35.9-16.5-42.4-32.5c-1.5-3.6-3-7.2-4.7-10.6c-6.7-13.1-15.6-21.8-29-28.2
			c-13.5-6.4-31.7-10.5-58.9-13.4c-11.1-1.1-21.2-1.7-31.1-1.7c-19,0-37,2-60.5,6.8c-1.1,0.2-2,0.4-3,0.6c-13,2.6-24.2,4.8-32,11.8
			c-15,13.6-27.3,35.5-21.5,51c5.7,15.2,24.8,18.3,45,21.4c3.9,0.6,7.9,1.3,11.9,2c6.2,1.2,11.1,2.4,15.4,3.8
			c30.6,9.9,64.4,18.8,106.4,28.2c35.7,7.9,53,25.4,69.7,42.2c16.3,16.3,33.1,33.2,66.5,41.3c5.1,1.2,10.8,1.9,17.1,1.9l0,0
			c7.4,0,15.6-0.9,24.4-2.7c23.9-4.8,45.2-19.5,61.2-31.8c25-19.3,56.1-43.3,92.9-58.8c1-0.4,1.9-0.8,2.9-1.1v-0.7
			c-1.1,0.5-2.3,0.9-3.5,1.4c-36.9,15.4-68,39.5-93.1,58.8c-15.8,12.3-37.1,26.9-60.8,31.7c-8.7,1.7-16.8,2.6-24.1,2.6l0,0
			c-6.1,0-11.7-0.6-16.8-1.8c-33.1-8-49.9-24.8-66.1-41.1c-16.8-16.9-34.3-34.4-70.2-42.4c-42-9.3-75.7-18.3-106.3-28.2
			c-4.3-1.4-9.3-2.6-15.6-3.8c-3.9-0.7-7.9-1.3-11.8-2c-20-3.2-38.9-6.2-44.5-21.1c-5.7-15.4,6.5-37.1,21.4-50.6
			c7.6-6.8,18.6-9.1,31.5-11.6c1-0.2,2-0.4,3.1-0.6c23.4-4.8,41.3-6.8,60.2-6.8c9.8,0,19.9,0.6,30.8,1.7c52.5,5.6,74.5,16,87.3,41.3
			c1.7,3.4,3.3,7,4.7,10.6c6.6,16.2,13.4,32.9,43.3,32.9l0,0c3.3,0,6.7-0.2,10.3-0.5c4.6-0.5,11.3-2,16.1-3.1
			c24.6-5.8,48.6-16.9,67.7-31.3c18.8-14.1,31.6-30.5,36.1-46c2.5-9.1,1.9-18.3,1.3-27.2c-0.5-7.5-1.1-15.3,0.5-22.9
			c1.8-9.5,5.6-12.9,11.8-18.7c1.7-1.6,3.7-3.4,5.9-5.6c17.5-8.2,38.3-12.4,61.8-12.4c6.2,0,12.4,0.3,18.9,0.9V341
			c-6.5-0.6-12.7-0.9-18.9-0.9C1877.4,340.1,1856.4,344.3,1838.7,352.6z"/>
		<path id="XMLID_1012_" class="st1" d="M1870.5,390.4c-4.6,7.7-5.5,15.7-6.5,24.9c-0.3,3.2-0.7,6.5-1.3,10.1
			c-2.1,13.9-6.8,28.3-11.4,42.2c-4.5,13.8-8.7,26.7-9.5,37v0.1l0.2,0.1c2.8,1.2,5.8,2.3,9.3,2.3c0.7,0,1.3,0,1.9-0.2l0.1,0
			c8.9-2.9,18.4-5.6,27.7-8.2c13.2-3.7,26.6-7.4,38.9-12.2v-0.6c-12.4,4.9-26,8.7-39.2,12.4c-9.3,2.6-18.8,5.3-27.8,8.3
			c-0.5,0.1-1.1,0.1-1.5,0.1c-3.3,0-6.1-1-8.7-2.1c0.8-10.2,5-23.1,9.5-36.8c4.6-13.9,9.3-28.3,11.4-42.2c0.6-3.6,0.9-6.9,1.2-10.1
			c1-9.2,1.9-17.1,6.5-24.7c6.3-10.5,21.5-17.4,38.8-17.4c3.3,0,6.6,0.3,9.9,0.7v-0.5c-3.3-0.5-6.6-0.7-9.9-0.7
			C1892.5,372.7,1876.9,379.6,1870.5,390.4z"/>
		<path id="XMLID_1009_" class="st1" d="M1526.4,459.5c-16.8,0-33.7,4.7-33.9,15.4v0.1c5.2,10.4,30.3,23.1,52.1,23.1l0,0
			c5.5,0,10.3-0.8,14.6-2.3c6.1-2.3,10.1-5.8,11.4-10c1.7-5.4-1.1-12-7.3-16.7C1555.9,463.2,1541.6,459.5,1526.4,459.5z
			 M1569.7,485.6c-1.3,4.1-5.1,7.4-11,9.7c-4,1.5-8.7,2.3-14,2.3c-21.5,0-46.1-12.4-51.2-22.7c0.2-10.3,16.7-14.8,33-14.8
			c15,0,28.9,3.5,36.3,9.3C1568.6,474,1571.4,480.3,1569.7,485.6z"/>
		<path id="XMLID_1006_" class="st1" d="M1818.9,523.1l-0.2,0c-1.6-0.3-3.4-0.5-5.2-0.5c-7.5,0-15.6,2.7-23.4,5.3
			c-2.9,1-5.9,2-8.9,2.8c-1.7,0.5-3.3,1-5.1,1.5c-25.7,7.2-60.8,17.2-58.4,40.8c3.5,7.4,14.2,14.8,30,14.8l0,0
			c1.4,0,2.9-0.1,4.5-0.2c28.7-6.9,45.9-26,57.8-42.1l0.9-1.1c5.3-7.2,11.3-15.3,8-21.1L1818.9,523.1z M1810.1,544.1l-0.9,1.2
			c-11.8,15.9-28.9,35-57.2,41.8c-1.5,0.1-2.9,0.2-4.3,0.2l0,0c-15.3,0-25.7-7.2-29.1-14.3c-2.5-23.2,32.5-33.1,57.9-40.3
			c1.7-0.5,3.5-1,5.1-1.5c2.9-0.8,5.9-1.8,8.9-2.8c7.7-2.6,15.6-5.2,23-5.2c1.6,0,3.2,0.1,4.7,0.4
			C1821.2,529.1,1815.3,537.1,1810.1,544.1z"/>
		<path id="XMLID_1003_" class="st1" d="M1503.2,704.4c-8.5-4.5-17-6.8-25.2-6.8c-19.5,0-32.5,12.8-35.2,25.5
			c-2.1,9.6-1.6,20,1.3,28.5c2.8,8.4,8.7,12.6,20.8,15c2.7,0.5,6.1,1,10.1,1.5c6.5,0.8,12.1,1.1,17.4,1.1l0,0
			c14,0,24.3-2.8,30.5-8.3c7.1-6.3,6-21,4.2-28.7C1524.2,721.2,1515.6,711,1503.2,704.4z M1521.9,760.6c-6,5.4-16,8-29.7,8
			c-5.2,0-10.8-0.3-17.2-1.1c-4-0.5-7.3-1-10-1.5c-11.9-2.3-17.4-6.3-20.1-14.6c-2.9-8.5-3.3-18.8-1.3-28.3
			c2.7-12.4,15.3-25,34.3-25c8,0,16.3,2.2,24.6,6.7c12.2,6.6,20.8,16.6,23.4,27.5C1527.6,739.4,1528.9,754.4,1521.9,760.6z"/>
		<path id="XMLID_1002_" class="st1" d="M93.9,875.2c8.5-0.9,15.7-1.9,22.7-2.9c8.5-1.2,16.6-2.3,27-3.3c9.5-0.8,19.6-1.2,29.3-1.6
			c21.9-0.8,44.5-1.7,63.8-7.5c24.3-7.3,26.8-25.9,18.5-41.1c-14-25.8-32.1-43.6-55.4-54.5c-9.1-4.3-17.7-9.2-26-13.9
			c-16.7-9.5-33.9-19.4-56.4-24.6c-17.1-4-36.8-7-55.8-9.8c-11.5-1.7-23.4-3.5-34.6-5.5c-5.3-0.9-11-2.1-17-3.4
			c-3.3-0.7-6.7-1.4-10.1-2.1v0.5c3.3,0.7,6.6,1.4,9.8,2c6.1,1.3,11.8,2.5,17,3.4c11.3,2,23.2,3.8,34.6,5.5
			c19,2.9,38.7,5.8,55.8,9.8c22.2,5.2,39.4,15.1,56,24.5c8.3,4.8,17,9.7,26.1,14c23.1,10.8,41.1,28.5,55,54.3
			c8.2,15,5.8,33.3-18,40.4c-19.2,5.8-41.7,6.7-63.5,7.5c-9.8,0.3-19.9,0.8-29.4,1.6c-10.4,1-18.9,2.1-27.1,3.3
			c-6.9,1-14,2-22.6,2.9c-15.6,1.6-31.5,2.8-47,4c-16.2,1.3-32.1,2.5-46.8,4.1v0.5c14.7-1.6,30.5-2.8,46.9-4.1
			C62.4,878,78.3,876.8,93.9,875.2z"/>
		<path id="XMLID_1001_" class="st1" d="M73.8,844.2c20.2-3.3,41.1-6.7,61-11.7c19.6-4.9,39.5-10.6,48.4-22.2
			c11.4-15.1,0.3-31.4-29.9-43.4c-5.3-2.1-10.2-4.2-15-6.2c-20.2-8.5-39.3-16.6-66.9-19.6c-17.8-1.9-44.3-3.1-71.3-3.5v0.5
			c27,0.3,53.4,1.5,71.2,3.4c27.3,3.1,46.3,11.1,66.5,19.6c4.9,2,9.8,4.1,15,6.2c29.9,12,40.9,28,29.6,42.8
			c-8.7,11.4-28.4,17.1-47.9,21.9c-19.9,5-40.7,8.4-61,11.7c-10.5,1.7-21.4,3.5-32.1,5.4c-13.6,2.5-27.7,4.1-41.5,5.6v0.5
			c13.8-1.5,28.1-3.1,41.7-5.7C52.3,847.7,63.2,845.9,73.8,844.2z"/>
		<path id="XMLID_1000_" class="st1" d="M67.3,905.1c20.4,0.5,41.5,0.8,62-0.3c18.9-1.1,36.3-3.3,53.1-5.6c4.2-0.5,8.3-1.1,12.6-1.6
			c3.1-0.4,6.2-0.8,9.4-1.2c32.1-3.9,65.3-8,92.3-18.6c31.5-12.3,35.6-38.1,21.2-55.9c-13.1-16.3-35.1-29.2-56.3-41.7
			c-17.6-10.3-35.9-21-48.9-33.6c-6-4.6-10.9-9-15.7-13.3c-15.4-13.8-27.6-24.7-60-29c-62.4-8.4-116.3-15.6-126.4-51.4
			c-3.5-12.7,1.3-22.6,6-32.2c3.7-7.6,7.3-14.8,6.5-22.9l-0.1-0.1l-0.1,0c-1.7-0.9-3.3-1.8-4.8-2.7c-2.1-1.2-4.2-2.5-6.6-3.5
			l-0.1-0.1h-0.2c-4.3,0.2-8,0.5-11.2,0.9v0.5c3.1-0.4,6.9-0.7,11.1-0.9c2.3,1,4.3,2.2,6.3,3.4c1.5,0.9,3.1,1.8,4.7,2.6
			c0.8,8-2.7,15.2-6.4,22.7c-4.7,9.7-9.5,19.6-6,32.4c10.1,36.2,64.3,43.4,127,51.9c32.1,4.3,44.2,15.1,59.4,28.8
			c4.8,4.3,9.8,8.7,15.8,13.3c13,12.6,31.3,23.4,49,33.7c21.2,12.4,43.1,25.3,56.2,41.5c14.1,17.7,10.2,43.1-21,55.3
			c-27,10.5-60,14.6-92,18.5c-3.2,0.4-6.3,0.8-9.4,1.1c-4.2,0.5-8.4,1.1-12.6,1.6c-16.8,2.1-34.1,4.4-53,5.5
			c-20.5,1.2-41.5,0.8-61.8,0.3c-23.6-0.5-46-0.9-67.4,1v0.5C21.4,904.2,43.8,904.7,67.3,905.1z"/>
		<path id="XMLID_997_" class="st1" d="M688.9,789.1c2.9,0.8,5.7,1.5,7.9,2.5c10.4,4.4,19.4,10.3,25,14.6
			c14.3,10.8,22.8,21.1,28.3,34.7c7.8,19,28.4,26.5,61.5,33.1c18.9,3.8,39.9,5.8,60.6,5.8c10.5,0,20.8-0.5,30.5-1.5
			c35.7-3.7,58.6-16.1,62.8-34.2c0.9-3.8,2.1-7.7,3.3-11.5c4.9-15.3,9.8-31.2-5.6-45.3c-12.6-11.5-36.5-13.1-60.5-13.1
			c-4.6,0-9.3,0.1-13.7,0.1c-4.4,0.1-8.9,0.2-13.2,0.2c-8.6,0-15-0.3-20.5-0.7c-19.1-1.8-38.1-4.4-56.4-7
			c-30.3-4.3-58.8-8.3-87.4-8.3c-6.1,0-12,0.2-17.7,0.6c-7.3,0.5-13.8,4.1-17.7,9.7c-3.6,5.2-4.7,12.2,1.1,16.2
			C680.1,786.7,684.6,787.9,688.9,789.1z M677,768.8c3.7-5.4,10.1-8.9,16.9-9.3c5.7-0.3,11.6-0.6,17.6-0.6c28.5,0,56.9,4,87.1,8.3
			c18.4,2.6,37.3,5.3,56.5,7c5.6,0.5,12,0.7,20.6,0.7c4.3,0,8.8,0,13.2-0.1c4.5-0.1,9.1-0.1,13.7-0.1c23.7,0,47.3,1.5,59.7,12.8
			c15.2,13.9,10.3,29.7,5.5,44.9c-1.2,3.8-2.5,7.8-3.3,11.5c-4.2,17.8-26.8,30.1-62,33.7c-9.6,1-19.9,1.5-30.3,1.5
			c-20.6,0-41.5-2-60.4-5.7c-32.8-6.5-53.2-14-60.9-32.7c-5.6-13.6-14.1-24-28.6-34.9c-5.6-4.3-14.6-10.3-25.1-14.7
			c-2.3-1-5.3-1.8-8-2.6c-4.3-1.2-8.7-2.4-11.4-4.2C673.3,781.2,672.9,774.7,677,768.8z"/>
		<path id="XMLID_994_" class="st1" d="M853.3,858.2c10.6,0,21.7-1.1,26.8-2c1.5-0.3,3.1-0.7,4.5-1c8.7-2.3,13.6-6.3,13.8-11.2
			c0.1-3.8-2.8-7.9-7.8-10.8c-6.9-4.1-16.5-5.6-25.8-3.9c-10,1.8-30.9,8.6-37.1,16.1c-2.2,2.6-2.5,5.1-0.9,7.3
			C830.2,857.2,843,858.2,853.3,858.2z M828.5,845.6c6.2-7.4,26.8-14.2,36.6-15.9c2.5-0.4,4.9-0.6,7.3-0.6c6.6,0,12.8,1.5,17.6,4.4
			c4.9,2.9,7.7,6.8,7.5,10.5c-0.2,4.6-4.9,8.5-13.3,10.7c-1.4,0.4-2.9,0.7-4.4,1c-5.1,1-16,2-26.5,2c-14.2,0-23.2-1.8-25.5-5.2
			C826.2,850.4,826.4,848.1,828.5,845.6z"/>
		<path id="XMLID_993_" class="st1" d="M1128.8,1052.1c-0.2-1.2-0.1-2.4-0.1-3.7c0.1-1.3,0.1-2.7-0.1-4.1
			c-1.7-8.3-7.7-18.6-13.8-29.4c-6.4-11-13-22.4-16.1-33.4c-1.3-4.6-2.1-9.5-3-14.3c-2.6-15.6-5.3-31.7-24.2-38.9
			c-8.6-3.3-21.2-4.8-39.5-4.8c-10.2,0-21.3,0.5-32.1,0.9c-4.2,0.2-8.5,0.3-12.6,0.5c-37.5,1.3-115.5,6.9-142.7,18.8
			c-37.1,16.2-41.6,44-41,69.1c4.4,31.6,41.9,49.3,83.3,67.1h1.5c-41.5-17.9-79.4-35.5-83.9-67.2c-0.5-24.9,3.9-52.6,40.8-68.7
			c27-11.8,104.8-17.4,142.1-18.7c4.2-0.1,8.4-0.3,12.7-0.5c10.8-0.5,21.8-0.9,32-0.9c18.2,0,30.5,1.5,39,4.7
			c18.6,7,21.2,23,23.9,38.5c0.7,4.8,1.6,9.8,2.9,14.4c3.1,11,9.7,22.4,16.1,33.5c6.3,10.8,12.2,20.9,13.8,29.2
			c0.3,1.3,0.2,2.7,0.1,4c-0.1,1.3-0.1,2.6,0.1,3.8c1.8,8.2-0.1,18-5,27.9h0.9C1128.6,1070.1,1130.6,1060.3,1128.8,1052.1z"/>
		<path id="XMLID_992_" class="st1" d="M126.9,1055.8c-0.5-7.3-0.2-14.6,0.3-21.7c0.6-10.8,1.2-21.1-2.1-29.4
			c-7.9-20.3-52.4-34.9-91.5-41.7c-11.6-2-22.2-2.7-33.6-2.2v0.5c11.2-0.5,21.9,0.2,33.4,2.2c38.8,6.8,83,21.2,90.8,41.2
			c3.3,8.2,2.7,18.5,2.1,29.3c-0.5,7.1-0.9,14.4-0.3,21.7c0.7,8.7,0.1,16.8-1.3,24.2h0.9C127,1072.6,127.6,1064.4,126.9,1055.8z"/>
		<path id="XMLID_991_" class="st1" d="M1082.4,1047.4c-1.7-4.9-4.8-10.9-8.1-17.3c-4.7-9.2-10.2-19.5-12.9-30.1
			c-0.8-3-1.5-5.8-2.1-8.6c-4.3-18-7.7-32.2-28.6-41.6c-14.2-6.4-40.9-10.2-71.2-10.2c-36.9,0-71.3,5.4-91.9,14.4
			c-33.9,14.7-35.2,40.8-30.4,60c7.5,20.5,33,31,65.4,44.5c15.1,6.2,30.7,12.7,46.7,21c0.4,0.2,0.8,0.5,1.3,0.7h1.3
			c-0.7-0.3-1.3-0.7-2.1-1c-15.9-8.3-32.2-15.1-46.6-21c-32.3-13.3-57.8-23.8-65.2-44.1c-4.9-19.1-3.5-44.9,30.1-59.5
			c20.4-8.9,54.6-14.2,91.3-14.2c30.1,0,56.5,3.8,70.7,10.1c20.7,9.3,24,23.4,28.2,41.2c0.7,2.8,1.3,5.7,2.1,8.6
			c2.8,10.6,8.2,21,13,30.1c3.3,6.4,6.5,12.3,8.1,17.2c3.5,10.5,2.1,22-3.5,32.6h0.9C1084.6,1069.4,1085.9,1057.9,1082.4,1047.4z"/>
		<path id="XMLID_990_" class="st1" d="M435.5,1016.9c-3.7-7.5-6.6-21.7-4.5-31.6c0.4-2,1.3-4.1,2.4-6.4c3.5-8,7.9-17.8-9.5-25
			l-0.1,0h-0.1c-32.2-2.2-51.8,13-69,26.4c-4.5,3.6-8.7,6.8-13.1,9.8c-15.7,9.5-37.1,16.2-59.8,23.5c-35.1,11.2-71.4,22.8-88.4,45.4
			c-4.9,6.4-9.1,13.8-13.2,21h0.9c4.1-7.2,8.3-14.5,13-20.8c17-22.5,53.2-34,88.2-45.2c22.7-7.2,44.1-14.1,59.9-23.6
			c4.5-3,8.7-6.3,13.2-9.8c17.1-13.3,36.4-28.4,68.1-26.3c16.7,7,12.6,16.2,9,24.4c-1.1,2.3-2.1,4.5-2.5,6.5
			c-2,9.9,0.7,24.2,4.5,31.7c5.7,11.6,14.1,23.2,22.8,35.7c6.4,8.9,12.8,18.1,18.5,27.3h0.9c-5.7-9.3-12.2-18.5-18.6-27.5
			C449.5,1040.1,441.3,1028.4,435.5,1016.9z"/>
		<path id="XMLID_987_" class="st1" d="M945.1,955.1c-20,0-39.7,3.4-52.6,9c-16.9,7.3-27,16.1-25.2,37.5
			c11.5,27.2,62.8,41.9,105.3,41.9l0,0c5.5,0,10.8-0.2,16.1-0.7h0.1l0.1,0c5.8-2.7,11.3-6.1,16.8-10.3l0.1-0.1
			c15.6-27.7,14.8-50.7-1.9-63.1C991.8,960.2,970.4,955.1,945.1,955.1z M1004.9,1032.2c-5.5,4.1-10.8,7.5-16.4,10.2
			c-5.2,0.4-10.5,0.7-15.9,0.7l0,0c-42.2,0-93-14.6-104.3-41.4c-1.9-21.1,8.1-29.8,24.7-37c12.8-5.6,32.3-8.9,52.2-8.9
			c25,0,46.1,5.1,58,13.9C1019.7,981.8,1020.3,1004.6,1004.9,1032.2z"/>
		<path id="XMLID_986_" class="st1" d="M726.3,1031.4c-6.7-18.6-13.6-37.8-34.7-53.1c-10.8-7.9-24.2-10.9-41.2-9.5
			c-34.9,3-76.3,21.1-98.6,30.9c-25,15-34.3,33.1-28.8,55.4c2,7.9,5.9,16.4,9.9,24.8h0.9c-4.1-8.4-8.1-16.9-9.9-24.9
			c-5.5-22.1,3.8-40.1,28.5-55c22.2-9.7,63.5-27.8,98.2-30.8c2.7-0.2,5.3-0.3,7.7-0.3c13,0,23.7,3.1,32.6,9.6
			c21,15.2,27.9,34.3,34.5,52.8c5.9,16.7,12,33.9,28.7,47.8c0.3,0.3,0.5,0.5,0.8,0.7h1.1c-0.4-0.3-0.8-0.6-1.2-0.9
			C738.3,1065.3,732.2,1048.1,726.3,1031.4z"/>
		<path id="XMLID_983_" class="st1" d="M949.4,990.2L949.4,990.2c-3.5-3.3-8.8-5.2-14.3-5.2c-1.7,0-3.6,0.2-5.3,0.6l-0.1,0
			c-3.3,1.4-5.7,3.8-6.1,5.9c-0.3,1.6,0.5,3,2.3,4.1c1.1,0.5,2.3,1.1,3.5,1.9l0.1,0h0.1c1.7,0.4,3.5,0.6,5.3,0.6l0,0
			c5.8,0,11.2-2,14.4-5.2l0.1-0.1C949.5,992,949.4,991,949.4,990.2L949.4,990.2z M948.4,992.8c-3.1,3.1-8,4.8-13.5,4.8l0,0
			c-1.6,0-3.3-0.2-4.9-0.5c-1.1-0.7-2.3-1.4-3.4-1.9c-1.5-1-2.3-2.3-2.1-3.8c0.4-2,2.6-4.2,5.6-5.6c1.7-0.4,3.4-0.5,5-0.5
			c5.2,0,10.2,1.8,13.4,4.8C948.6,991.1,948.6,991.9,948.4,992.8z"/>
		<path id="XMLID_982_" class="st1" d="M44.2,1013.1c-11.1-7.9-21.5-11.1-44.2-13.5v0.5c22.3,2.4,32.5,5.6,43.5,13.3
			c19.4,13.8,31.3,39.3,34.1,57.3c0.5,3.3,0.8,6.4,0.8,9.3h0.9c0-2.9-0.2-6-0.7-9.3C75.7,1052.6,63.7,1026.9,44.2,1013.1z"/>
		<path id="XMLID_981_" class="st1" d="M616.8,1019.8c-1.3,0-2.6,0-3.9,0.1c-12.2,0.6-22.9,3.8-31.1,9.4
			c-11.6,8-16.8,20.1-14.6,34.3c0.9,5.4,2.4,11,4.5,16.4h0.9c-2.1-5.5-3.7-11-4.5-16.5c-2.2-14,2.9-26,14.4-33.9
			c8-5.4,18.5-8.7,30.5-9.2c1.3,0,2.6-0.1,3.9-0.1c36.1,0,49.5,24.8,61.3,46.6c2.5,4.6,4.9,9.1,7.4,13.1h1c-2.6-4.1-5-8.6-7.5-13.3
			C667.1,1044.7,653.7,1019.8,616.8,1019.8z"/>
		<path id="XMLID_980_" class="st1" d="M371.4,1040.4c-6.1-0.5-12.2-0.7-18.3-0.7c-24.5,0-48.5,3.8-69.4,11.1
			c-20.4,7.1-37,17.2-48.1,29.2h1c22.8-24.6,67.1-39.8,116.5-39.8c6.1,0,12.2,0.3,18.2,0.7c26.3,2.1,52.2,14.6,71,34.4
			c1.5,1.5,2.9,3.1,4.2,4.7h0.9c-1.3-1.6-2.8-3.3-4.3-4.9C424.2,1055.1,398.1,1042.5,371.4,1040.4z"/>
		<path id="XMLID_979_" class="st1" d="M1.3,1062.3c-0.5,0-0.9,0-1.3,0v0.5c0.4,0,0.8,0,1.3,0c6.9,0,12.6,2.6,16.1,7.3
			c2.1,2.9,3.2,6.4,3.1,9.9h1c0-3.6-1.2-7.2-3.3-10.1C14.5,1065.1,8.5,1062.3,1.3,1062.3z"/>
		<path id="XMLID_978_" class="st1" d="M302.1,1080h1.5c14-5.6,31.2-8.7,48.6-8.7c17.2,0,33,3.1,45.8,8.7h1.5
			c-13-6-29.5-9.2-47.3-9.2C334.2,1070.8,316.6,1074.1,302.1,1080z"/>
		<path id="XMLID_977_" class="st1" d="M1591.9,1030.2c-10.5-11.1-21.5-22.6-30.1-34.5c-4.8-6.5-9.1-13.6-13.7-21.2
			c-19.6-32.4-41.7-69-110.4-69c-0.9,0-1.8,0-2.7,0c-25,0.3-48.4,5.4-63.8,9.5c-3.7,1-7.6,2-11.4,3.1c-11.5,3-23.4,6.2-34.1,9.6
			c-31.2,9.9-67,14.7-101.5,19.5l-0.5,0c-2.9,0.4-6.1,0.8-9.4,1.2c-23.2,2.8-52,6.4-61.2,21.9c-7,11.9-0.5,27.2,5.7,42
			c2.3,5.4,4.4,10.5,5.9,15.3c5,16.7,5.4,32.5,0.9,46.9c-0.6,1.8-1.3,3.7-2.1,5.6h0.9c0.8-1.9,1.4-3.7,2-5.6
			c4.4-14.4,4.1-30.3-0.9-47c-1.5-4.9-3.6-10-5.9-15.4c-6.3-14.7-12.6-29.9-5.7-41.7c9-15.2,37.5-18.7,60.5-21.5
			c3.3-0.4,6.5-0.8,9.4-1.2l0.5,0c34.7-4.7,70.5-9.5,101.8-19.5c10.6-3.4,22.5-6.5,34-9.6c3.9-1,7.7-2,11.4-3
			c15.2-4.2,38.7-9.2,63.4-9.5c0.9,0,1.9,0,2.7,0c68,0,90,36.5,109.6,68.7c4.5,7.5,8.9,14.7,13.6,21.3c8.8,12,19.6,23.4,30.2,34.6
			c9,9.5,17.5,18.4,24.8,27.6c7.3,9.2,14.9,16.4,23,21.8h1.2c-8.3-5.4-16-12.7-23.4-22C1609.4,1048.7,1600.9,1039.8,1591.9,1030.2z"
			/>
		<path id="XMLID_976_" class="st1" d="M1895.4,933.4c-56.6,12.3-94.4,35.5-109.2,67.1c-4.2,8.8-7.1,20.1-9.9,31
			c-3.5,13.6-7.2,27.6-13.1,37.3c-2.6,4.2-6.2,7.9-10.8,11.1h1.1c4.5-3.2,8.1-6.9,10.6-10.9c6.1-9.8,9.6-23.8,13.2-37.4
			c2.9-10.9,5.8-22.2,9.9-31c14.8-31.4,52.3-54.5,108.7-66.8c4.7-1,12.6-2.3,19.4-3.1c1.6-0.2,3.2-0.3,4.9-0.5v-0.5
			c-1.7,0.2-3.4,0.3-5.1,0.5C1908.2,931.1,1900.1,932.4,1895.4,933.4z"/>
		<path id="XMLID_975_" class="st1" d="M1840.4,699.7c-18.1,2.3-35.5,7.4-52.4,12.3c-16.9,4.9-34.3,10-52.3,12.2
			c-46.5,5.8-63.8-17.7-78.9-38.4c-2.2-2.9-4.3-5.8-6.3-8.5c-8.7-10.8-18.4-20.8-29.3-29.5c-21.8-17.6-46.8-31.6-74.5-41.7
			c-25.6-9.3-47.2-14.4-67.9-16c-33.5-2.6-57.3,3.4-84.7,10.3c-5.9,1.5-12.1,3.1-18.4,4.5c-18.1,4.2-38.7,9-52.7,19.4
			c-10.5,7.8-18.5,17.3-26.1,26.5l-1.8,2.1c-14.2,16.9-24.6,33.6-35.5,51.2c-2.5,4-4.9,8-7.3,12c-6.6,10.9-13.4,22.2-21.7,32.9
			c-6.2,8.2-15.6,15.2-24.8,22.1c-5.1,3.8-10.4,7.8-15,11.9c-11.8,10.3-30.2,19.4-48.1,28.1c-6.5,3.2-12.6,6.2-18.3,9.2
			c-3.6,1.8-7.4,3.8-11.5,5.7c-18.5,9.2-39.5,19.6-45,32.8c-0.7,1.8-1.4,3.5-2.1,5.2c-5.9,14.8-11.1,27.6-36.8,36.8
			c-24.3,8.8-53.8,11.6-79.9,14.1c-12.3,1.2-24.8,2.1-36.9,3.1c-22.4,1.6-43.4,3.3-62.5,6.1c-43.7,6.7-70.3,24.1-79.1,51.9
			c-8.6,27.1,0.1,60.1,9.9,73.7c8.7,12.2,23.4,21.7,41.1,30.3h1.5c-18-8.6-32.9-18.2-41.7-30.5c-9.6-13.4-18.4-46.3-9.8-73.3
			c8.9-27.5,35.1-44.9,78.5-51.4c19.1-2.9,40.1-4.5,62.4-6.2c12-0.9,24.6-1.8,36.9-3c26.1-2.5,55.7-5.4,80.2-14.2
			c26.1-9.4,31.1-22.3,37.1-37.2c0.7-1.7,1.5-3.4,2.1-5.2c5.5-13.1,26.4-23.4,44.7-32.5c4.1-2,8-3.9,11.5-5.8c5.7-3,11.8-6,18.3-9.2
			c17.9-8.8,36.4-17.8,48.2-28.2c4.7-4.1,9.9-8,15-11.8c9.1-6.9,18.6-14.1,25-22.2c8.3-10.7,15.1-22,21.7-33c2.4-3.9,4.9-8,7.3-12
			c11-17.6,21.4-34.2,35.5-51.1l1.7-2.1c7.7-9.2,15.6-18.6,26.2-26.4c13.8-10.3,34.3-15,52.2-19.2c6.4-1.5,12.5-3.1,18.4-4.5
			c27.4-6.9,51-12.8,84.3-10.3c20.5,1.6,41.9,6.6,67.5,15.9c27.6,10,52.6,24,74.3,41.6c10.7,8.7,20.5,18.6,29.1,29.4
			c2.1,2.7,4.2,5.5,6.4,8.5c7.4,10,15.6,21.3,27.8,29.2c14,9,31.1,12.1,52.2,9.5c18-2.2,35.5-7.4,52.4-12.3
			c16.8-4.9,34.3-10,52.2-12.2c29.5-3.8,56.6,0.6,79.4,5.2v-0.5C1897.2,700.3,1870.1,696,1840.4,699.7z"/>
		<path id="XMLID_974_" class="st1" d="M1793.6,893.2c-21.1,11.8-41.1,23-67.2,27.3c-36.3,6.2-63.8-9.2-90.4-24.2
			c-1.6-0.9-3.3-1.8-4.9-2.8c-13.5-7.5-29.7-13.2-45.3-18.7c-11.2-3.9-22.8-8-33.3-12.8c-7.9-3.6-16.2-6.9-24.2-10
			c-5.5-2.2-11-4.4-16.4-6.7c-8.9-3.8-15.1-9.7-21.2-15.4c-3.3-3.1-6.6-6.3-10.4-9c-10.2-7.6-24.7-13.3-38.7-18.9
			c-25.7-10.2-50-19.8-51.7-39.8c-1-11.9,3.7-26.7,12.8-40.6c8.7-13.1,25.2-27.4,45.2-39.1c13.6-8,27.5-11.7,41.1-11
			c24.2,1.2,45,15.9,60.4,28.7c9,7.5,12.6,14.7,16.4,22.4c2.2,4.4,4.5,9,7.9,13.8c3.5,4.8,7.7,9.6,11.6,14.2
			c6.4,7.2,12.8,14.7,16.9,22.7c6.8,13.4,8.1,32.7-2.4,43.9c-10.2,10.8-5.4,29.1,5.4,38.8c9.8,8.7,34.3,14.3,54,18.8
			c4.5,1,8.6,2,12.3,2.9c1.7,0.5,3.5,0.9,5.2,1.3c6.4,1.6,11.8,3.1,18,3.8c30.5,3.6,51.6-4.8,64.3-25.7c13.4-22,4.1-42-26.1-56.3
			c-9.2-4.3-19.7-7.7-29.9-10.9c-4.6-1.5-9.4-3-14-4.6c-1.2-0.4-2.4-0.8-3.6-1.3c-13.3-4.6-29.8-10.2-38.9-16.8
			c-13.6-9.9-24.8-20.6-33.3-31.8c-4.3-5.7-7.7-11.6-11.2-17.8c-2.6-4.5-5.3-9.1-8.3-13.8c-7-10.6-17.6-20.1-25.2-26.2
			c-14.4-11.3-40.3-26.4-66-31.9c-40.7-8.7-95.6,14.4-122.5,32.1c-15.1,9.9-24.9,22.2-32.5,32.9c-2.1,2.9-4.1,5.9-6.1,8.8
			c-11.1,16.1-21.7,31.3-39.3,45.3c-5.7,4.5-10.3,9.3-14.8,14c-3.3,3.3-6.6,6.9-10.3,10.2c-9.5,8.5-23.8,13.6-38,17.8
			c-6.5,2-13.3,3.8-19.8,5.6c-18.9,5.1-38.4,10.3-54.3,19c-10.1,5.5-14.1,11.3-12,17.4c3.5,10,22.7,17.4,39.5,21
			c34.9,7.5,75.4,4.8,111,2.3l4.6-0.3c2.9-0.2,5.7-0.3,8.4-0.5c15.7-0.9,30.6-1.8,45.5-6.7c2.4-0.8,4.7-1.5,7.1-2.3
			c22.6-7.4,42.1-13.8,67.9-17.1c16.2-2.1,40.4-1.9,55.1,3.4c7.3,2.6,10.5,6.6,13.8,10.8c2,2.6,4.1,5.2,7.2,7.7
			c12.4,9.3,29.1,16.6,45.2,23.7c15.8,6.9,32.3,14.1,44.7,23.2c7.4,5.4,13.6,12.1,19.6,18.5c6,6.5,12.2,13.1,19.4,18.3
			c14.7,10.5,34.7,14.1,56.5,10.2c18.9-3.4,39.9-12.6,60.2-21.6c3.1-1.4,6.1-2.7,9.1-4c10.6-4.6,20.9-9.4,30.9-14.1
			c27.4-12.8,53.4-25,82.6-31.8c11.6-2.7,24.8-4.6,39-6.2v-0.5c-14.4,1.6-27.7,3.5-39.3,6.3c-29.3,6.8-55.4,19-82.8,31.9
			c-10,4.7-20.2,9.5-30.8,14.1c-3,1.3-6.1,2.6-9,4c-20.2,8.9-41.1,18.1-60,21.5c-21.4,3.8-41.1,0.3-55.5-10
			c-7.1-5.1-13-11.4-19.3-18.1c-6.1-6.5-12.4-13.3-19.8-18.7c-12.5-9.1-28.9-16.4-44.8-23.3c-16.1-7.1-32.7-14.4-45-23.7
			c-3-2.3-5.1-4.9-7.1-7.5c-3.4-4.3-6.6-8.3-14-11.1c-15-5.4-39.5-5.6-55.8-3.5c-26,3.4-45.6,9.8-68.2,17.2
			c-2.3,0.7-4.7,1.5-7.1,2.3c-14.7,4.8-29.5,5.6-45.2,6.5c-2.7,0.2-5.6,0.4-8.4,0.5l-4.5,0.3c-35.6,2.4-75.9,5.1-110.7-2.4
			c-20.8-4.4-36.1-12.6-38.9-20.6c-2.1-5.8,1.9-11.5,11.8-16.9c15.7-8.5,35.2-13.8,54-18.9c6.6-1.7,13.4-3.6,20-5.5
			c14.2-4.2,28.7-9.3,38.3-18c3.7-3.3,7.1-6.8,10.3-10.1c4.5-4.7,9.2-9.5,14.8-13.9c17.7-14.1,28.2-29.3,39.4-45.5
			c2-2.9,4-5.8,6.1-8.8c7.7-10.6,17.4-22.9,32.3-32.7c26.8-17.5,81.2-40.5,121.5-31.9c25.6,5.4,51.3,20.5,65.6,31.7
			c7.7,6,18.3,15.4,25.2,26c3.1,4.6,5.7,9.3,8.3,13.7c3.5,6.2,6.9,12.1,11.2,17.9c8.4,11.3,19.7,22,33.3,31.9
			c9.2,6.7,25.8,12.4,39.1,17c1.3,0.4,2.5,0.8,3.7,1.3c4.5,1.6,9.4,3.1,14,4.6c10.1,3.2,20.6,6.5,29.7,10.8
			c29.9,14.2,39.1,34,25.9,55.8c-12.6,20.6-33.3,28.9-63.4,25.4c-6-0.7-11.4-2.1-17.8-3.8c-1.7-0.4-3.5-0.9-5.2-1.4
			c-3.7-0.9-7.9-1.8-12.3-2.8c-19.6-4.5-44-10-53.6-18.6c-10.6-9.5-15.4-27.5-5.4-38.2c10.6-11.3,9.2-30.9,2.5-44.3
			c-4-8-10.6-15.5-16.8-22.8c-4.1-4.6-8.1-9.3-11.6-14.2c-3.5-4.8-5.7-9.3-7.9-13.8c-3.7-7.7-7.3-14.9-16.5-22.5
			c-15.5-12.8-36.5-27.7-61-28.9c-13.9-0.7-27.9,3.1-41.8,11.1c-20.2,11.8-36.7,26.1-45.4,39.3c-9.2,14-13.8,28.9-12.8,40.8
			c1.7,20.2,27.3,30.4,52,40.2c14,5.6,28.4,11.3,38.6,18.8c3.7,2.7,6.9,5.7,10.3,9c6.1,5.7,12.3,11.6,21.3,15.5
			c5.4,2.3,11,4.5,16.4,6.7c8,3.2,16.3,6.5,24.2,10c10.5,4.7,22.2,8.8,33.4,12.8c15.6,5.5,31.7,11.2,45.1,18.7
			c1.7,0.9,3.3,1.8,4.9,2.8c26.8,15,54.4,30.5,91.3,24.3c26.3-4.4,46.4-15.6,67.6-27.5c20.1-11.3,41-22.9,69.1-29.7
			c18-4.3,37.5-6.8,56.7-9.1v-0.5c-19.3,2.3-38.9,4.8-57.1,9.2C1834.8,870.3,1813.9,881.9,1793.6,893.2z"/>
		<path id="XMLID_973_" class="st1" d="M1826.3,740.5c-14.4,1.8-29.2,6-44.9,10.4c-26,7.4-52.7,15-77.4,10.5
			c-44.4-8-61.4-35.1-76.5-59c-3.1-4.9-6-9.5-9.1-13.9c-6.9-9.8-15.5-19-25.6-27.1c-15.8-12.6-35.1-20.5-55.6-28.7
			c-3.1-1.2-6.2-2.5-9.4-3.8c-18-7.4-40.1-14.7-65.5-12.6c-8,0.7-16.3,3.1-24.3,5.5c-5.1,1.5-9.8,2.9-14.5,3.9
			c-3.5,0.7-7,1.5-10.6,2.3c-27.2,5.6-55.4,11.5-74.7,24.2c-5.5,3.6-10.3,8.4-14.9,12.9c-2.4,2.4-4.7,4.6-7,6.8
			c-9.6,8.5-17.9,17.8-24.8,27.8c-7.3,10.8-11.6,22.4-15.8,33.7c-4.5,12.1-9.2,24.7-17.6,36.2c-8.7,11.7-31.7,20.1-52.1,27.5
			c-5.5,2-10.8,3.9-15.4,5.9c-13.8,5.6-25.9,12.3-37.4,18.8c-7.6,4.3-15.4,8.7-23.8,12.7c-19.2,9.3-27.8,25.3-22.6,41.7
			c9.3,28.6,28.7,33.4,70.6,37.4c31.9,3,69.1,2.3,113.6-2.1c25.6-2.6,50-12.1,73.5-21.3c8.6-3.4,16.6-6.5,24.6-9.2
			c33-11.5,72.2-9.1,104.7,6.4c4.2,2,8.4,3.9,12.6,5.8c24.8,11.4,48.2,22.2,60.6,39.3c5.5,7.5,9.1,15.4,12.6,23.2
			c3.4,7.5,6.9,15.4,12.2,22.7c8,11.1,23.6,23.4,40.9,32.1c14.8,7.5,37.3,15.7,60.1,11.8c21.2-3.6,33.6-17.4,46.8-32
			c8.4-9.3,17.2-18.9,28.7-26.8c15-10.4,35-19.8,48.8-25.9l1.4-0.7c29.5-13.2,57.4-25.7,94.2-29.9c2.3-0.3,4.7-0.5,7.1-0.7v-0.5
			c-2.5,0.2-4.9,0.5-7.4,0.7c-37.1,4.3-65,16.8-94.4,30l-1.5,0.7c-13.8,6.2-33.8,15.6-48.9,26c-11.6,8-20.2,17.7-28.7,27
			c-13.1,14.6-25.6,28.3-46.3,31.8c-22.3,3.8-44.5-4.3-59.2-11.7c-16.9-8.5-32.9-21.1-40.6-31.9c-5.3-7.4-8.9-15.2-12.2-22.7
			c-3.5-7.7-7.1-15.7-12.6-23.2c-12.6-17.2-37.2-28.5-61-39.5c-4.1-1.9-8.3-3.8-12.4-5.8c-32.9-15.6-72.5-18-105.8-6.5
			c-8,2.8-16,5.9-24.5,9.2c-23.6,9.2-47.8,18.6-73.3,21.2c-44.3,4.5-81.4,5.2-113.3,2.1c-41.5-3.9-60.6-8.7-69.9-37
			c-5.3-16.2,3.3-31.9,22.2-41.1c8.3-4.1,16.2-8.5,23.9-12.8c11.5-6.5,23.4-13.2,37.2-18.7c4.7-1.9,10-3.8,15.4-5.8
			c20.4-7.4,43.6-15.9,52.4-27.7c8.5-11.5,13.2-24.1,17.7-36.3c4.2-11.3,8.4-22.8,15.8-33.6c6.8-9.9,15-19.3,24.6-27.7
			c2.4-2.1,4.7-4.4,7.1-6.8c4.6-4.5,9.3-9.2,14.8-12.8c19.2-12.6,47.3-18.4,74.3-24.1c3.5-0.8,7.1-1.5,10.7-2.2
			c4.7-1,9.6-2.5,14.4-3.9c8-2.4,16.2-4.8,24.1-5.4c25.2-2.1,46.8,5.2,64.9,12.5c3.2,1.3,6.2,2.5,9.3,3.7
			c20.5,8.3,39.8,16,55.4,28.6c10.1,8.1,18.6,17.2,25.6,27c3.1,4.4,5.9,9,9,13.9c15.1,24,32.2,51.3,77.1,59.3c25,4.5,52-3.2,78-10.6
			c15.6-4.4,30.3-8.6,44.6-10.3c20.2-2.5,57.6-3.5,93.6-3v-0.5C1883.9,737.1,1846.5,738.1,1826.3,740.5z"/>
		<path id="XMLID_972_" class="st1" d="M1808.1,331c-24.3,9.7-38.9,23.4-43.3,40.8c-1.7,6.8-0.4,14.2,0.9,21.3
			c1.5,7.5,2.9,15.2,0.8,22.6c-2.3,8.4-10.1,15.9-20,19.2c-7,2.4-14.7,2.6-22.8,0.9c-26.2-17.5-47.6-29.2-79.9-36.8
			c-9.2-2.1-18.6-4-30.2-6.1c-5.7-1-11.4-2.1-16.9-3.1c-35.1-6.6-71.4-13.4-130.4-10.6c-28.4,1.3-49.7,4.4-68.3,15.2
			c-12.3,7.2-21.6,15.8-30.5,24.1c-6.5,6-13.2,12.2-20.8,17.8c-3.9,2.8-8.5,5.6-13,8.3c-6.6,4-13.5,8.2-18.6,12.8
			c-10.4,9.5-10.9,25.4-7,36.1c5.2,14,20.7,26,36.3,37.1c3.8,2.8,7.5,5.8,11.4,9c10.4,8.6,21.2,17.4,36.1,22c16.4,5,35.6,5,53.8,4.3
			c6.3-0.2,12.7-1.3,19-2.2c9.1-1.4,18.6-2.9,27.7-2c32.4,3.3,69.1,16.3,92.6,27.4c12.8,6,24.4,12.7,34.4,20.1
			c7.9,5.7,15.4,11.5,23.4,17.7c13.7,10.6,27.9,21.5,44,32.3c15,10.1,34.5,19.6,65.1,13.5c17.4-3.5,32.3-9.5,46.3-15.3
			c20.6-8.7,39.2-21,57.2-32.8c16.4-10.9,32.1-21.1,47.4-27.4c4.2-1.7,9.2-3.3,17.1-4.4v-0.5c-8.1,1-13.4,2.8-17.6,4.5
			c-15.5,6.3-31.1,16.6-47.6,27.5c-17.9,11.8-36.5,24.1-57,32.7c-14.3,6.1-28.7,11.8-46,15.2c-30.1,6-49.4-3.4-64.2-13.3
			c-16-10.8-30.3-21.8-43.9-32.3c-8.1-6.2-15.6-12-23.5-17.7c-10.1-7.4-21.6-14.2-34.5-20.2c-23.6-11.1-60.5-24.1-93-27.5
			c-9.3-1-18.8,0.5-28.1,2c-6.2,0.9-12.5,1.9-18.8,2.1c-18.1,0.7-37.1,0.7-53.4-4.2c-14.8-4.5-25.5-13.3-35.9-21.8
			c-3.9-3.2-7.6-6.2-11.4-9c-15.4-11-31-22.9-36.1-36.8c-3.9-10.6-3.4-26.3,6.9-35.7c4.9-4.6,11.8-8.7,18.4-12.7
			c4.5-2.7,9.1-5.5,13-8.3c7.8-5.6,14.4-11.8,20.8-17.8c9-8.3,18.2-16.9,30.5-24c18.4-10.7,39.6-13.8,67.7-15.1
			c58.9-2.8,95.2,4,130.1,10.6c5.5,1,11.3,2.1,16.9,3.1c11.6,2.1,21,3.9,30.1,6.1c32.2,7.5,53.6,19.2,79.7,36.7l0.1,0l0.1,0
			c8.5,1.8,16.5,1.5,23.8-0.9c10.1-3.4,18.2-11.1,20.5-19.6c2-7.4,0.5-15.1-0.9-22.7c-1.3-7.1-2.6-14.5-0.9-21.2
			c4.4-17.2,18.8-30.8,42.9-40.4c27.5-11,65.9-16.1,111.4-15.1v-0.5C1874.3,314.8,1835.7,319.9,1808.1,331z"/>
		<path id="XMLID_971_" class="st1" d="M523.3,49.3c1.5,7.2,3.5,20.6-0.9,29.5c-7.2,14.8-28,27.5-48,39.8
			c-28.3,17.3-57.6,35.3-48.6,59.3c4.9,12.9,17,21,37.3,24.6c17.6,3.2,39.2,2.8,63.5,2c44.5-1.4,74.6,2.8,92.1,6.6
			c17.7,3.9,33.9,10.3,49.8,16.6c21.2,8.4,41.2,16.4,63.8,18.1c9.1,0.7,16.5,0.5,25-0.6c21.2-2.7,37.1-8.8,54-15.3
			c28.7-11,58.4-22.4,116.1-15.8c12.6,1.4,25.2,3.6,38.5,5.9c42.5,7.2,86.4,14.7,135.5-0.3c44.4-12.8,72.3-36.4,99.3-59.2
			c12.6-10.6,25.6-21.6,40-31.3c18.4-12.3,43.5-29.2,74.3-23.4c12.4,2.3,25.2,3.4,37.5,4.6c19.6,1.8,39.9,3.6,58.1,10.2
			c13,4.7,23.2,11.4,33,17.9c4.6,3,9.4,6.2,14.4,9.1c11,6.4,20,13.9,28.6,21.2c7.4,6.2,15,12.6,23.9,18.3
			c12,6.1,22.5,11.4,34.7,17.8c14.8,7.8,28.3,17,41.3,25.9c25,17.1,48.6,33.2,79.4,38.5c21.8,3.7,44.3,3.2,72.9-1.5
			c15.3-2.6,35.5-7.5,49.8-11.3c28.9-7.5,61.4-17.9,86.9-27.6c19.9-7.6,35.1-18.2,44.3-31v-1.3c-9.1,13.2-24.5,24.2-44.7,31.9
			c-25.6,9.7-58,20-86.9,27.6c-14.2,3.7-34.3,8.7-49.6,11.2c-28.6,4.7-50.9,5.2-72.5,1.6c-30.5-5.2-54-21.3-79-38.3
			c-13-8.9-26.5-18.2-41.5-25.9c-12.2-6.4-22.7-11.8-34.7-17.8c-8.8-5.6-16.4-12-23.8-18.2c-8.6-7.3-17.7-14.8-28.7-21.3
			c-5.1-2.9-9.8-6.1-14.4-9.1c-9.9-6.5-20-13.3-33.2-18c-18.4-6.7-38.7-8.5-58.4-10.3c-12.4-1.1-25.2-2.3-37.3-4.6
			c-31.4-5.9-56.8,11.1-75.3,23.5c-14.4,9.7-27.4,20.7-40.1,31.3c-27,22.8-54.8,46.3-98.9,59c-48.8,14.9-92.6,7.5-135,0.3
			c-13.3-2.3-25.9-4.4-38.6-5.9c-57.9-6.6-87.8,4.8-116.7,15.9c-16.8,6.5-32.7,12.6-53.8,15.2c-8.3,1.1-15.7,1.2-24.6,0.5
			c-22.4-1.7-42.4-9.6-63.5-18c-15.8-6.2-32.2-12.8-50-16.7c-17.5-3.8-47.8-8.1-92.4-6.7c-41.7,1.3-89.1,2.9-100-26.2
			c-8.8-23.7,20.3-41.6,48.5-58.9c20.2-12.4,41-25.1,48.2-40c4.2-8.5,2.9-20.9,1-29.7c-3.1-14.2-10.3-28.8-18-44.2
			c-0.8-1.6-1.6-3.3-2.5-5h-0.9c0.9,1.7,1.7,3.4,2.6,5.1C513.1,20.5,520.4,35,523.3,49.3z"/>
		<path id="XMLID_970_" class="st1" d="M1820.8,1023.3c-3.3,10.2-4.9,20.8-6.4,31c-1.3,8.9-2.6,17.6-5,25.7h0.9
			c2.4-8.1,3.7-16.8,5-25.6c1.6-10.2,3.1-20.8,6.5-31c11.5-35.5,42.4-56.8,89.4-61.4c3.1-0.3,6-0.5,8.9-0.7v-0.5
			c-3,0.1-5.9,0.3-9.1,0.7C1863.6,966.1,1832.4,987.5,1820.8,1023.3z"/>
		<path id="XMLID_969_" class="st1" d="M1560.9,1051.6c-5.2-10.5-13.6-21.4-21.7-31.9l-1.4-1.8c-5.3-6.9-9.6-14.3-14.1-22.2
			c-9.2-16-18.8-32.6-37.8-44.6c-16.8-10.6-44.3-16.7-75.5-16.7c-17.4,0-34.2,2-48.4,5.6c-16.8,4.3-30.5,9.5-41.7,15.8
			c-9.4,5.2-23.1,8-36.3,10.7c-8.9,1.7-18,3.6-26,6.2c-24.1,7.9-39.3,18.9-43.8,31.9c-4.3,12.1-3.8,27.8-3.3,42.9
			c0.2,9.2,0.5,18.7-0.2,27.5c-0.1,1.5-0.3,3.2-0.6,4.9h0.9c0.2-1.6,0.4-3.3,0.5-4.9c0.7-8.8,0.5-18.3,0.2-27.5
			c-0.5-15.1-0.9-30.8,3.3-42.9c4.5-12.9,19.5-23.8,43.4-31.6c7.9-2.5,17-4.4,25.8-6.1c13.2-2.7,27-5.4,36.6-10.8
			c11.2-6.2,24.7-11.4,41.5-15.7c14.2-3.6,30.7-5.6,48-5.6c30.9,0,58.1,6,74.8,16.5c18.8,11.9,28.4,28.4,37.6,44.4
			c4.6,7.8,8.9,15.3,14.2,22.2l1.5,1.8c8.1,10.5,16.4,21.3,21.6,31.8c2.9,5.9,5.5,12.5,7.9,18.8c1.3,3.3,2.5,6.4,3.7,9.4h0.9
			c-1.3-3-2.5-6.2-3.8-9.5C1566.4,1064.1,1563.9,1057.5,1560.9,1051.6z"/>
		<path id="XMLID_968_" class="st1" d="M1520.1,1060.8c-2.1-8.3-4.6-17.7-10.4-26c-2.3-3.4-5.9-6.2-9.5-8.9
			c-2.7-2.1-5.4-4.2-7.6-6.5c-3.2-3.4-5.7-7.2-8.4-11.2c-7.7-11.4-15.6-23.1-37.5-26.5c-5.2-0.8-12-1.1-20.8-1.1
			c-9.2,0-19,0.4-27.7,0.8c-3.5,0.1-6.7,0.3-9.6,0.4c-28.3,1-58.5,7.2-81,16.7c-27.1,11.3-34.9,30.5-38.4,43.9
			c-2.7,9.7-5.1,23.9,3.1,36c0.4,0.5,0.7,1,1.1,1.5h1c-0.4-0.6-0.9-1.1-1.3-1.7c-8.1-12-5.6-26.2-3.1-35.8
			c3.5-13.3,11.3-32.4,38.1-43.6c22.4-9.4,52.5-15.6,80.5-16.6c3-0.1,6.2-0.2,9.6-0.4c8.7-0.4,18.5-0.9,27.7-0.9
			c8.7,0,15.4,0.4,20.6,1.2c21.4,3.3,29.2,14.9,36.8,26.1c2.7,4.1,5.3,7.9,8.5,11.3c2.2,2.4,5,4.5,7.7,6.6c3.5,2.7,7.1,5.5,9.4,8.8
			c5.8,8.2,8.3,17.6,10.4,25.9c1.5,5.9,2.1,12.5,2.1,19.1h0.9C1522.3,1073.3,1521.7,1066.7,1520.1,1060.8z"/>
		<path id="XMLID_967_" class="st1" d="M1919.2,999.5L1919.2,999.5c-42.2,2.2-65.7,28.6-72,80.5h0.9c6.2-51.6,29.4-77.8,71-80
			c0.3,0,0.6,0.1,0.9,0.1v-0.5C1919.8,999.5,1919.5,999.5,1919.2,999.5L1919.2,999.5z"/>
		<path id="XMLID_966_" class="st1" d="M1908.6,1064.7c-4.6,4.4-9.1,9.5-10,15.3h0.9c0.9-5.6,5.4-10.6,9.8-14.9
			c3.7-1.3,7.3-2,10.7-2.2v-0.5c-3.5,0.2-7.3,0.9-11.3,2.3L1908.6,1064.7z"/>
		<path id="XMLID_965_" class="st1" d="M491.3,1010.9c6.9-13,18.7-20.8,37.2-32.6c2.9-1.9,6.1-3.7,9.5-5.7
			c13.2-7.9,28.2-16.8,31.5-26c6.7-18.5-13.2-29.4-33.7-37.5c-10.1-4-21.4-7.2-32.4-10.3c-14.2-4-28.9-8.1-41-14.1
			c-12.9-6.4-24-15.6-33.1-27.3c-4.1-5.2-5.9-10.8-7.8-16.2c-1.7-5.3-3.5-10.7-7.4-15.8c-17.8-23-41.1-49-79.2-67.1
			c-16.6-7.9-37.5-20.4-43-35.2c-3.6-9.8,1.4-18.3,5.5-25.2l0.7-1.2c9-15.5,36.1-52.4,92.6-61.7c10.1-1.7,22.6-2.9,35.7-4.3
			c16.5-1.6,33.6-3.3,46-6c19.4-4.1,33.3-9.8,48-16.3l2.1-0.9c14-6.2,31.5-13.9,54.4-12.9c19.8,1,42.4,6.9,61.9,16.4
			c19.8,9.6,32.9,21.2,36.3,31.9c2.1,6.9,3.1,12.4,4.1,17.8c0.9,4.6,1.5,9,3.1,13.8c7.3,24.1,27.4,43.4,59.8,57.1
			c26.4,11.2,61.4,19,104.4,23.3c55.8,5.6,103.1-4.9,120.8-9.7c28.2-7.6,58.4-25.8,84.5-42.4c25.9-16.4,39.7-26.2,42.7-52.2
			c1-8.4-0.2-16.5-1.3-24.4c-0.4-3.1-0.9-6.2-1.3-9.3c-0.2-2.3-0.5-4.6-0.9-7c-1.3-7.9-2.5-16.1,0-24.6
			c5.3-17.4,22.7-25.1,53.5-23.4c40.1,2.1,75.3,17.5,89.4,39c11.3,17.2,2.2,35.1-5,49.6l-1.2,2.4c-11.9,23.9-28.2,42.6-49.5,57.1
			c-12.2,8.2-25.6,15.8-38.6,23.3c-4.9,2.7-9.8,5.6-14.6,8.4c-6.8,3.9-14.3,7.6-21.6,11.1c-9.1,4.4-18.6,9-26.6,14.2
			c-11.4,7.4-19.8,15.8-26.7,23c-22.3,23.6-37.9,44.4-47.5,63.5c-8.7,17.2-32.8,30.9-64.4,36.7c-40.8,7.3-99.2,6.5-173.6-2.5
			c-36.5-4.4-58.2-16.5-64.5-35.8c-7.1-22.1-33.1-33.1-60.4-44.7c-7.1-3-14.3-6.1-21.4-9.3c-29.1-13.7-14.6-26.7,0.7-40.4
			c6.9-6.2,13.9-12.5,16.9-19c4.9-10.1-1.4-20.8-7.4-31.1c-3.1-5.4-6.1-10.5-7.5-15.5c-7.1-23.9-14.1-42.7-35.2-50.4
			c-11.3-4.1-25.8-4.7-44.5-1.7c-3,0.4-6.3,1-9.9,1.6c-7.2,1.2-15.4,2.6-22.1,3.4c-11.6,1.5-23.8,2.4-36.6,3.3
			c-13.6,1-27.7,2-43.2,3.9c-23.5,2.8-44.2,9.3-59.8,18.8c-15.3,9.3-25,21.1-28.2,34.1c-1.3,5.5-1.7,10.3,0.9,15.4
			c7.7,15.1,31.5,25.7,52.5,35.1c4.9,2.1,9.4,4.2,13.8,6.3l0.7,0.3c20.3,9.7,45.6,21.7,44.7,38.2c-1,17,2.8,29.3,12.6,41.3
			c15.4,18.8,37.2,30.2,75.1,39.3c2.9,0.7,5.7,1.3,8.5,2c13,3.1,26.4,6.3,38.9,10.3c10.2,3.3,17,7.4,24.2,11.8
			c4,2.4,8.1,4.9,12.8,7.3c5.7,2.8,11,6.6,16.7,10.6c14.3,10.2,30.5,21.7,55.6,19c12.8-1.4,25.5-6.5,38.9-11.9
			c11.7-4.7,23.8-9.6,37.5-12.7c23.1-5.2,55.6-6.4,90.1-7.8c20.9-0.8,42.6-1.6,62.4-3.4c45-4.1,75.4-13.2,93-27.8
			c5.3-4.3,8.7-9.2,12-13.9c2.5-3.7,5.1-7.4,8.6-10.9c2.5-2.6,6.5-4.7,10.4-6.7c2.1-1.1,4.4-2.3,6.3-3.5c3.6-2.3,7.1-4.7,10.4-7.1
			c3.7-2.6,7.6-5.3,11.7-7.9c6.4-4,13.6-7.7,20.6-11.3c6.5-3.4,13.2-6.9,19.3-10.6c5.1-3.1,9.1-6.4,13-9.6c4.5-3.7,8.9-7.4,15-10.8
			c10.2-5.9,21-12.3,29.5-19.4c7.3-6.1,10.6-12.1,14.2-18.3c1-2,2.1-3.9,3.5-6c2.7-4.6,7.7-8.9,12.5-13.1c2.9-2.5,5.7-5,8.1-7.5
			c9.1-9.6,16.9-19.2,23.2-28.6c1.7-2.6,3.3-5.3,5-7.9c0.7-1.1,1.4-2.2,2.1-3.3c3.1-5,6.5-10,9.7-14.9c9.3-14.2,19-28.9,24-42.3
			c3.2-8.5,6-17.7,2.6-26.7c-11.6-30.9-63.6-63.1-111.3-69c-22-2.7-49.8-2.5-78.3,0.5c-47.2,5.1-64.6,18.2-62.2,46.8
			c0.5,6.7,1.7,13.4,2.6,19.9c2.3,14.1,4.4,27.4,1.8,40.3c-1.5,7.4-5.8,14-8.9,18.3c-6.9,9.6-22.8,26-42.5,43.9
			c-19.4,17.5-45.6,30.3-71.8,35c-49.7,9.1-116.3,0.1-155.1-21c-19.4-10.5-40.1-28.6-28.6-54.4c0.7-1.6,1.9-3.1,3.1-4.8
			c1.6-2,3.1-4.1,4-6.4c6-6,13.5-11.3,20.8-16.5c16.5-11.8,32.1-22.8,26.1-38.7c-1.1-2.9-3.3-6-5.7-9.3c-4.9-6.8-9.8-13.8-4-18
			c10.2-7.4,24.2-15,39.1-23.1c25.6-14,52.2-28.6,59.7-42.2c7.7-13.7-8-27.3-14.6-33c-7.2-6.2-15.4-12.7-24.1-19.6
			c-6.7-5.3-13.7-10.8-20.3-16.2c-5.5-4.6-10.8-8.9-16-13.3c-12.1-10-23.6-19.5-35.3-29.6c-4.7-4-9.3-8.3-13.9-12.5
			c-7.7-7-15.5-14.1-23.4-20.2c-17.3-13.3-36.8-18.8-58.2-16.3c-21.2,2.5-44.1,11.9-64,20.5c-2.7,1.1-5.4,2.3-8.1,3.5
			c-37.1,16-79.3,34.2-90.4,54.4c-9.4,17.2,8,25.2,26.4,33.7c2,0.9,4,1.8,5.9,2.8c12.2,5.8,21.6,11.8,29.1,16.8
			c10.2,6.9,19.4,15.2,28.2,23.3c6.2,5.7,12,11.1,17.9,15.5c20.2,15.2,46.3,21.9,71.5,28.5c24.8,6.4,50.4,12.9,69.7,27.5
			c0,0.5,0.1,1,0.1,1.6c0.1,1.5,0.2,3.1-0.5,4.5c-23,14.3-51.6,17.9-87.3,11c-10.9-2.1-21.7-5.4-33.1-9c-25.6-8-52-16.2-82.4-10.8
			c-21.9,3.8-37.1,12.7-51.8,21.3c-14.5,8.5-29.5,17.3-51.2,21.6c-12.7,2.5-25.8,3.2-44.3,4.1c-46.4,2-68.9,5.1-88,19
			c-25.2,18.4-56.2,50.9-65.7,64.4c-3.7,5.4-6.1,9.4-7.1,12.3c-8.1,23.4,16.9,41.7,39.5,55.2c5.5,3.2,11.5,6.2,17.3,9
			c5.2,2.6,10.6,5.2,15.6,8c10.1,5.8,18.2,12.8,26,19.5c4.1,3.4,8,6.9,12.4,10.2c31.2,23.9,40.6,44.8,30.5,67.7
			c-7.3,16.4-24,37.2-62.2,42.9c-14,2.1-29.2,3.1-45.2,4.1c-14.8,1-30.3,2-45.3,4c-13.2,1.7-25.6,3.9-37.7,6.2
			c-16.8,3-32.7,5.9-49.2,7.1c-28.8,2.2-54.4-1.3-79.1-4.5c-21.8-2.9-42.6-5.7-63-4.1v0.5c20.4-1.6,41,1.1,62.8,4.1
			c24.8,3.3,50.4,6.7,79.5,4.6c16.6-1.2,32.4-4.1,49.3-7.1c12-2.2,24.5-4.4,37.7-6.1c15-2,30.3-3,45.1-4c16-1.1,31.2-2.1,45.3-4.2
			c30.6-4.6,52.4-19.5,62.8-43.2c10.2-23.1,0.7-44.1-30.6-68.2c-4.3-3.3-8.3-6.8-12.3-10.2c-7.9-6.7-16-13.7-26.3-19.5
			c-4.9-2.9-10.3-5.5-15.5-8c-5.8-2.9-11.8-5.8-17.2-9c-22.5-13.3-47.4-31.4-39.3-54.7c1-2.9,3.3-6.9,7.1-12.2
			c9.5-13.4,40.4-45.9,65.5-64.2c18.8-13.8,41.3-16.9,87.4-18.9c18.5-0.8,31.6-1.5,44.5-4.1c21.9-4.3,36.9-13.2,51.5-21.7
			c15.2-9,29.7-17.4,51.3-21.1c30.1-5.2,56.4,2.9,81.8,10.8c11.5,3.6,22.3,7,33.2,9.1c36.2,6.9,65.1,3.3,88.4-11.2l0.1-0.1
			c0.7-1.6,0.7-3.2,0.5-4.7c0-0.6,0-1.1,0-1.6v-0.1l-0.1-0.1c-19.4-14.7-45.2-21.3-70.1-27.7c-25.2-6.4-51.2-13.2-71.2-28.3
			c-5.8-4.4-11.7-9.8-17.9-15.5c-8.8-8-17.9-16.3-28.2-23.3c-7.5-5.1-16.9-11.1-29.2-16.9c-2-1-4-1.8-5.9-2.8
			c-18.2-8.4-35.3-16.3-26.1-33.1c11-20,53-38.1,90-54.1c2.7-1.1,5.5-2.3,8.1-3.5c19.8-8.6,42.7-17.9,63.6-20.4
			c21-2.5,40.3,2.9,57.4,16.1c7.9,6,15.7,13.2,23.4,20.2c4.5,4.1,9.2,8.4,13.9,12.5c11.7,10.1,23.2,19.6,35.3,29.6
			c5.3,4.3,10.6,8.7,16.1,13.3c6.5,5.4,13.4,10.9,20.2,16.2c8.7,6.9,17,13.3,24.1,19.5c6.6,5.7,22,19.1,14.6,32.6
			c-7.5,13.6-34,28-59.6,42c-14.8,8.1-28.9,15.8-39.1,23.1c-6.1,4.4-1.1,11.6,4,18.5c2.3,3.3,4.6,6.4,5.6,9.2
			c5.9,15.6-9.6,26.6-26,38.3c-7.3,5.2-14.9,10.6-20.9,16.7l-0.1,0.1c-0.9,2.3-2.4,4.3-4,6.3c-1.2,1.7-2.5,3.3-3.1,4.9
			c-9,20.4,1.2,39.9,28.9,54.9c38.9,21.2,105.9,30.2,155.9,21.1c26.4-4.9,52.7-17.7,72.1-35.2c19.8-17.9,35.8-34.3,42.7-44
			c3.1-4.3,7.4-11,8.9-18.4c2.6-12.9,0.5-26.3-1.7-40.4c-1.1-6.5-2.1-13.3-2.7-19.9c-1.2-14.5,2.7-24.6,12.1-31.8
			c9.6-7.2,25.3-11.9,49.4-14.4c28.3-3.1,56-3.3,77.9-0.5c47.4,5.8,99.1,37.9,110.6,68.6c3.4,8.9,0.6,17.9-2.5,26.4
			c-5,13.4-14.7,28-24,42.2c-3.2,4.9-6.5,10-9.6,15c-0.7,1.1-1.4,2.2-2.1,3.3c-1.5,2.6-3.3,5.3-5,7.9c-6.3,9.3-14,18.9-23.1,28.5
			c-2.4,2.5-5.3,5.1-8.1,7.5c-4.8,4.2-9.9,8.6-12.6,13.2c-1.3,2.1-2.4,4.1-3.5,6c-3.5,6.2-6.8,12.2-14,18.2
			c-8.7,7.1-19.3,13.5-29.5,19.3c-6.1,3.4-10.7,7.2-15.1,10.8c-3.9,3.3-7.9,6.5-12.9,9.6c-6.1,3.7-12.8,7.2-19.4,10.6
			c-7,3.6-14.2,7.4-20.7,11.4c-4,2.6-8,5.2-11.7,7.9c-3.3,2.3-6.8,4.7-10.4,7c-1.9,1.2-4.1,2.4-6.3,3.5c-3.9,2-7.9,4.1-10.5,6.8
			c-3.6,3.5-6.2,7.2-8.7,10.9c-3.3,4.7-6.7,9.6-11.8,13.8c-17.4,14.5-47.6,23.4-92.4,27.5c-19.7,1.8-41.3,2.6-62.3,3.4
			c-34.5,1.3-67.1,2.6-90.4,7.8c-13.7,3.1-26,8-37.7,12.7c-13.3,5.4-25.9,10.4-38.5,11.8c-24.6,2.7-40.6-8.7-54.8-18.7
			c-5.7-4-11-7.9-16.8-10.7c-4.7-2.4-8.9-4.8-12.8-7.3c-7.3-4.4-14.1-8.5-24.4-11.9c-12.6-4.1-26.1-7.3-39.1-10.3
			c-2.9-0.7-5.7-1.3-8.5-2c-37.7-9.1-59.4-20.4-74.6-39c-9.8-11.9-13.5-24.2-12.5-41.1c0.9-16.7-24.6-28.8-45-38.6l-0.7-0.3
			c-4.3-2.1-8.9-4.2-13.8-6.3c-21.9-9.8-44.6-20-52.3-34.9c-2.5-5.1-2.2-9.8-0.8-15.2c6.4-26.7,39.9-46.8,87.2-52.5
			c15.4-1.9,29.5-2.8,43.1-3.8c12.8-0.9,25-1.8,36.7-3.3c6.7-0.8,14.9-2.2,22.2-3.4c3.5-0.6,6.8-1.2,9.9-1.6
			c18.4-2.9,32.7-2.4,43.8,1.7C606,649.2,613,668,620,691.7c1.5,5.1,4.5,10.2,7.6,15.6c5.9,10.3,12.1,20.9,7.5,30.8
			c-3.1,6.4-10.1,12.7-16.9,18.8c-15.5,13.9-30.2,27.1-0.5,41.1c7.1,3.3,14.3,6.4,21.4,9.4c27.3,11.6,53,22.5,60.1,44.4
			c6.4,19.5,28.3,31.7,65.2,36.2c74.5,9.1,133.1,9.9,174,2.6c32-5.8,56.3-19.6,65-37c9.6-19.1,25.2-39.8,47.5-63.5
			c6.8-7.2,15.3-15.5,26.5-22.9c7.9-5.2,17.4-9.8,26.6-14.2c7.3-3.5,14.8-7.1,21.6-11.1c4.8-2.8,9.8-5.7,14.6-8.4
			c13.1-7.4,26.6-15.2,38.7-23.3c21.5-14.5,37.7-33.2,49.6-57.3l1.2-2.4c7.3-14.5,16.3-32.5,5-49.9c-14.2-21.7-49.6-37.2-90.1-39.4
			c-31.3-1.7-49.2,6.1-54.4,23.8c-2.6,8.5-1.3,16.7-0.1,24.7c0.3,2.5,0.7,4.7,0.9,7c0.4,3.2,0.8,6.3,1.3,9.3
			c1.1,7.9,2.3,16,1.4,24.3c-3.1,25.9-16.8,35.6-42.5,51.9c-26.1,16.5-56.2,34.7-84.2,42.2c-17.6,4.7-64.8,15.2-120.4,9.7
			c-95.3-9.5-150.3-36.4-163.6-80c-1.4-4.8-2.2-9.2-2.9-13.8c-1-5.4-1.9-10.9-4.1-17.9c-3.4-10.8-16.7-22.5-36.6-32.2
			c-19.7-9.5-42.4-15.5-62.4-16.4c-23.2-1-40.8,6.7-55,13l-2.1,0.9c-14.8,6.5-28.5,12.2-47.8,16.3c-12.3,2.6-29.4,4.3-45.9,6
			c-13.1,1.3-25.6,2.6-35.7,4.2c-57,9.4-84.2,46.5-93.3,62l-0.7,1.3c-4.1,6.9-9.1,15.5-5.5,25.4c5.5,15,26.6,27.6,43.3,35.5
			c37.9,18.1,61.2,44,78.9,67c3.8,4.9,5.6,10.3,7.3,15.6c1.9,5.4,3.7,11.1,7.8,16.4c9.1,11.7,20.4,21,33.3,27.4
			c12.1,6.1,27,10.2,41.2,14.2c11,3.1,22.3,6.2,32.3,10.3c20.2,8,39.9,18.8,33.3,37c-3.3,9.1-18,18-31.2,25.7
			c-3.4,2-6.5,3.9-9.5,5.8c-18.6,11.7-30.3,19.6-37.3,32.7c-5.2,9.8-5.6,27.3-0.9,39.9c3.8,10.2,8.4,19.9,13.2,29.3h0.9
			c-4.7-9.4-9.4-19.2-13.2-29.4C485.9,1038.1,486.2,1020.6,491.3,1010.9z"/>
	</g>
</g>
</svg>
